<svg width="424" height="290" viewBox="0 0 424 290" fill="none" xmlns="http://www.w3.org/2000/svg">
<g clip-path="url(#clip0_101_9365)">
<path d="M332.599 183.822H133.894C130.871 183.818 127.973 182.615 125.836 180.476C123.699 178.336 122.496 175.436 122.493 172.41V66.2462C122.496 63.2207 123.699 60.32 125.836 58.1807C127.973 56.0413 130.871 54.8379 133.894 54.8345H332.599C335.622 54.8379 338.52 56.0413 340.657 58.1807C342.794 60.32 343.997 63.2207 344 66.2462V172.41C343.997 175.436 342.794 178.336 340.657 180.476C338.52 182.615 335.622 183.818 332.599 183.822Z" fill="white"/>
<path d="M332.599 183.822H133.894C130.871 183.818 127.973 182.615 125.836 180.476C123.699 178.336 122.496 175.436 122.493 172.41V66.2462C122.496 63.2207 123.699 60.32 125.836 58.1807C127.973 56.0413 130.871 54.8379 133.894 54.8345H332.599C335.622 54.8379 338.52 56.0413 340.657 58.1807C342.794 60.32 343.997 63.2207 344 66.2462V172.41C343.997 175.436 342.794 178.336 340.657 180.476C338.52 182.615 335.622 183.818 332.599 183.822ZM133.894 55.5261C131.054 55.5293 128.332 56.6598 126.324 58.6695C124.317 60.6792 123.187 63.4041 123.184 66.2462V172.41C123.187 175.252 124.317 177.977 126.324 179.987C128.332 181.996 131.054 183.127 133.894 183.13H332.599C335.439 183.127 338.161 181.996 340.169 179.987C342.176 177.977 343.306 175.252 343.309 172.41V66.2462C343.306 63.4041 342.176 60.6792 340.169 58.6695C338.161 56.6598 335.439 55.5293 332.599 55.5261H133.894Z" fill="#F5F5F5"/>
<path d="M332.599 175.522H133.894C133.069 175.521 132.279 175.193 131.696 174.61C131.113 174.026 130.785 173.235 130.784 172.41V66.2462C130.785 65.4211 131.113 64.63 131.696 64.0465C132.279 63.4631 133.069 63.1349 133.894 63.1339H332.599C333.424 63.1349 334.214 63.4631 334.797 64.0465C335.38 64.63 335.708 65.4211 335.709 66.2462V172.41C335.708 173.235 335.38 174.026 334.797 174.61C334.214 175.193 333.424 175.521 332.599 175.522ZM133.894 63.8255C133.252 63.8263 132.638 64.0815 132.184 64.5353C131.731 64.9891 131.476 65.6044 131.475 66.2462V172.41C131.476 173.052 131.731 173.667 132.184 174.121C132.638 174.575 133.252 174.83 133.894 174.831H332.599C333.241 174.83 333.855 174.575 334.309 174.121C334.762 173.667 335.017 173.052 335.018 172.41V66.2462C335.017 65.6044 334.762 64.9891 334.309 64.5353C333.855 64.0815 333.241 63.8263 332.599 63.8255H133.894Z" fill="#F5F5F5"/>
<path d="M282.026 176.028L89.9541 125.064C87.0333 124.285 84.5403 122.379 83.022 119.763C81.5037 117.146 81.0841 114.034 81.8553 111.109L109.031 8.48925C109.809 5.5656 111.714 3.07014 114.327 1.55037C116.941 0.0305867 120.05 -0.389403 122.972 0.382538L315.044 51.3472C317.965 52.1258 320.458 54.0322 321.977 56.6484C323.495 59.2645 323.914 62.3767 323.143 65.3021L295.967 167.922C295.19 170.845 293.285 173.341 290.671 174.861C288.058 176.38 284.949 176.8 282.026 176.028Z" fill="#F5F5F5"/>
<path d="M282.026 176.028L89.9541 125.064C87.0333 124.285 84.5403 122.379 83.022 119.763C81.5037 117.146 81.0841 114.034 81.8553 111.109L109.031 8.48925C109.809 5.5656 111.714 3.07014 114.327 1.55037C116.941 0.0305867 120.05 -0.389403 122.972 0.382538L315.044 51.3472C317.965 52.1258 320.458 54.0322 321.977 56.6484C323.495 59.2645 323.914 62.3767 323.143 65.3021L295.967 167.922C295.19 170.845 293.285 173.341 290.671 174.861C288.058 176.38 284.949 176.8 282.026 176.028ZM122.795 1.05107C120.05 0.325926 117.129 0.720467 114.674 2.14814C112.219 3.57581 110.43 5.92001 109.699 8.66647L82.5232 111.286C81.7988 114.034 82.1929 116.958 83.6192 119.415C85.0455 121.873 87.3874 123.664 90.1311 124.395L282.203 175.36C284.949 176.085 287.869 175.69 290.325 174.263C292.78 172.835 294.569 170.491 295.3 167.744L322.475 65.1248C323.2 62.3767 322.806 59.4532 321.379 56.9956C319.953 54.538 317.611 52.7471 314.867 52.0158L122.795 1.05107Z" fill="#D0D0D0"/>
<path d="M284.151 168.006L92.0787 117.041C91.2822 116.829 90.6023 116.309 90.1882 115.595C89.7741 114.882 89.6597 114.033 89.87 113.235L117.046 10.6156C117.258 9.81821 117.777 9.13763 118.49 8.72315C119.203 8.30866 120.051 8.19412 120.848 8.40463L312.92 59.3693C313.717 59.5817 314.397 60.1016 314.811 60.8151C315.225 61.5286 315.339 62.3774 315.129 63.1752L287.953 165.795C287.741 166.592 287.221 167.273 286.509 167.687C285.796 168.102 284.948 168.216 284.151 168.006ZM120.671 9.07317C120.051 8.90942 119.392 8.9985 118.837 9.32088C118.283 9.64326 117.879 10.1726 117.714 10.7928L90.5379 113.412C90.3743 114.033 90.4633 114.693 90.7853 115.248C91.1074 115.803 91.6362 116.207 92.2558 116.372L284.328 167.337C284.948 167.501 285.607 167.412 286.162 167.089C286.716 166.767 287.12 166.238 287.285 165.618L314.461 62.998C314.625 62.3774 314.536 61.7173 314.214 61.1623C313.891 60.6074 313.363 60.203 312.743 60.0379L120.671 9.07317Z" fill="white"/>
<path d="M290.106 198H91.4006C88.378 197.997 85.4802 196.793 83.3429 194.654C81.2056 192.514 80.0034 189.614 80 186.588V80.4244C80.0034 77.3989 81.2056 74.4983 83.3429 72.3589C85.4802 70.2195 88.378 69.0161 91.4006 69.0127H290.106C293.129 69.0161 296.027 70.2195 298.164 72.3589C300.301 74.4983 301.504 77.3989 301.507 80.4244V186.588C301.504 189.614 300.301 192.514 298.164 194.654C296.027 196.793 293.129 197.997 290.106 198Z" fill="white"/>
<path d="M236.12 189.009H107.802C107.641 189.01 107.48 189.006 107.322 188.997L168.011 154.784C169.167 154.12 171.759 153.886 173.802 154.262C174.362 154.348 174.904 154.524 175.408 154.784L216.137 177.743L218.089 178.842L236.12 189.009Z" fill="#D0D0D0"/>
<path d="M276.603 189.009H165.618L187.125 178.842L188.673 178.11L216.698 164.86C218.535 163.992 222.955 163.938 225.115 164.696C225.26 164.748 225.395 164.803 225.519 164.86L276.603 189.009Z" fill="#D0D0D0"/>
<path d="M91.4008 69.7043C88.5614 69.7076 85.8392 70.838 83.8315 72.8478C81.8237 74.8575 80.6944 77.5823 80.6912 80.4245V186.588C80.6944 189.43 81.8237 192.155 83.8315 194.165C85.8392 196.175 88.5614 197.305 91.4008 197.308H290.107C292.946 197.305 295.668 196.175 297.676 194.165C299.684 192.155 300.813 189.43 300.816 186.588V80.4245C300.813 77.5823 299.684 74.8575 297.676 72.8478C295.668 70.838 292.946 69.7076 290.107 69.7043H91.4008Z" fill="#1C1C1C"/>
<path d="M290.107 189.701H91.4006C90.5763 189.7 89.786 189.371 89.2031 188.788C88.6202 188.204 88.2923 187.413 88.2914 186.588V80.4244C88.2923 79.5993 88.6202 78.8082 89.2031 78.2248C89.786 77.6413 90.5763 77.3131 91.4006 77.3121H290.107C290.931 77.3131 291.721 77.6413 292.304 78.2248C292.887 78.8082 293.215 79.5993 293.216 80.4244V186.588C293.215 187.413 292.887 188.204 292.304 188.788C291.721 189.371 290.931 189.7 290.107 189.701ZM91.4006 78.0038C90.7595 78.0045 90.1448 78.2597 89.6914 78.7135C89.2381 79.1674 88.983 79.7826 88.9823 80.4244V186.588C88.983 187.23 89.2381 187.845 89.6914 188.299C90.1448 188.753 90.7595 189.008 91.4006 189.009H290.107C290.748 189.008 291.362 188.753 291.816 188.299C292.269 187.845 292.524 187.23 292.525 186.588V80.4244C292.524 79.7826 292.269 79.1674 291.816 78.7135C291.362 78.2597 290.748 78.0045 290.107 78.0038H91.4006Z" fill="#F5F5F5"/>
<path d="M245.832 96.7445C257.643 96.7445 267.218 87.1604 267.218 75.3378C267.218 63.5152 257.643 53.931 245.832 53.931C234.021 53.931 224.446 63.5152 224.446 75.3378C224.446 87.1604 234.021 96.7445 245.832 96.7445Z" fill="#FFAF37"/>
<path d="M254.773 153.276C269.732 153.276 281.859 138.082 281.859 119.339C281.859 100.596 269.732 85.4019 254.773 85.4019C239.813 85.4019 227.687 100.596 227.687 119.339C227.687 138.082 239.813 153.276 254.773 153.276Z" fill="#F5F5F5"/>
<path d="M254.847 112.515H254.921L256.261 189.383H253.433L254.847 112.515Z" fill="#F5F5F5"/>
<path d="M259.467 163.404C259.55 163.561 259.567 163.745 259.514 163.915C259.462 164.085 259.344 164.227 259.187 164.31L255.302 166.357L254.678 165.17L258.563 163.123C258.72 163.04 258.903 163.023 259.073 163.076C259.243 163.129 259.384 163.247 259.467 163.404Z" fill="#F5F5F5"/>
<path d="M176.901 153.276C191.86 153.276 203.987 138.082 203.987 119.339C203.987 100.596 191.86 85.4019 176.901 85.4019C161.942 85.4019 149.815 100.596 149.815 119.339C149.815 138.082 161.942 153.276 176.901 153.276Z" fill="#F5F5F5"/>
<path d="M181.596 164.675V164.675C181.513 164.518 181.371 164.4 181.201 164.347C181.032 164.294 180.848 164.311 180.691 164.394L177.979 165.823L177.05 112.515H176.976L175.562 189.383H178.389L178.005 167.325L181.315 165.58C181.472 165.498 181.59 165.356 181.643 165.186C181.695 165.016 181.678 164.832 181.596 164.675Z" fill="#F5F5F5"/>
<path d="M215.743 41.1296C234.698 41.1296 250.104 76.8803 250.104 100.629C250.104 124.379 234.738 143.631 215.783 143.631C196.828 143.631 181.462 124.379 181.462 100.629C181.462 76.8803 196.788 41.1296 215.743 41.1296Z" fill="#117DC1"/>
<path d="M221.731 157.729C221.68 157.631 221.609 157.543 221.523 157.472C221.437 157.401 221.338 157.347 221.232 157.314C221.126 157.281 221.014 157.269 220.903 157.279C220.792 157.289 220.684 157.322 220.585 157.373L217.149 159.184L215.972 91.6366H215.878L214.086 189.037H217.669L217.182 161.087L221.376 158.877C221.475 158.825 221.562 158.754 221.633 158.668C221.705 158.582 221.758 158.483 221.791 158.377C221.824 158.27 221.836 158.158 221.826 158.047C221.815 157.936 221.783 157.828 221.731 157.729Z" fill="#1C1C1C"/>
<path d="M290.798 197.308H92.0917C89.0692 197.305 86.1714 196.102 84.0341 193.962C81.8968 191.823 80.6946 188.922 80.6912 185.897V79.7329C80.6946 76.7073 81.8968 73.8067 84.0341 71.6673C86.1714 69.5279 89.0692 68.3245 92.0917 68.3211H290.798C293.82 68.3245 296.718 69.5279 298.855 71.6673C300.992 73.8067 302.195 76.7073 302.198 79.7329V185.897C302.195 188.922 300.992 191.823 298.855 193.962C296.718 196.102 293.82 197.305 290.798 197.308Z" fill="white"/>
<path d="M236.811 188.317H108.492C108.332 188.318 108.171 188.314 108.013 188.305L168.702 154.093C169.857 153.428 172.45 153.194 174.492 153.57C175.053 153.656 175.595 153.833 176.099 154.093L216.828 177.052L218.78 178.15L236.811 188.317Z" fill="#D0D0D0"/>
<path d="M277.294 188.317H166.309L187.816 178.15L189.363 177.418L217.389 164.168C219.226 163.3 223.646 163.246 225.806 164.005C225.951 164.056 226.086 164.111 226.21 164.168L277.294 188.317Z" fill="#D0D0D0"/>
<path d="M290.798 197.308H92.0917C89.0692 197.305 86.1714 196.102 84.0341 193.962C81.8968 191.823 80.6946 188.922 80.6912 185.897V79.7329C80.6946 76.7073 81.8968 73.8067 84.0341 71.6673C86.1714 69.5279 89.0692 68.3245 92.0917 68.3211H290.798C293.82 68.3245 296.718 69.5279 298.855 71.6673C300.992 73.8067 302.195 76.7073 302.198 79.7329V185.897C302.195 188.922 300.992 191.823 298.855 193.962C296.718 196.102 293.82 197.305 290.798 197.308ZM92.0917 69.0127C89.2523 69.0159 86.5302 70.1464 84.5224 72.1561C82.5147 74.1659 81.3853 76.8907 81.3821 79.7329V185.897C81.3853 188.739 82.5147 191.464 84.5224 193.473C86.5302 195.483 89.2523 196.614 92.0917 196.617H290.798C293.637 196.614 296.359 195.483 298.367 193.473C300.375 191.464 301.504 188.739 301.507 185.897V79.7329C301.504 76.8907 300.375 74.1659 298.367 72.1561C296.359 70.1464 293.637 69.0159 290.798 69.0127H92.0917Z" fill="#1C1C1C"/>
<path d="M290.798 189.009H92.0918C91.2675 189.008 90.4772 188.68 89.8943 188.096C89.3114 187.513 88.9835 186.722 88.9825 185.897V79.7328C88.9835 78.9077 89.3114 78.1166 89.8943 77.5332C90.4772 76.9497 91.2675 76.6215 92.0918 76.6205H290.798C291.622 76.6215 292.412 76.9497 292.995 77.5332C293.578 78.1166 293.906 78.9077 293.907 79.7328V185.897C293.906 186.722 293.578 187.513 292.995 188.096C292.412 188.68 291.622 189.008 290.798 189.009ZM92.0918 77.3122C91.4506 77.3129 90.8359 77.5682 90.3826 78.022C89.9292 78.4758 89.6742 79.0911 89.6735 79.7328V185.897C89.6742 186.538 89.9292 187.154 90.3826 187.608C90.8359 188.061 91.4506 188.317 92.0918 188.317H290.798C291.439 188.317 292.054 188.061 292.507 187.608C292.96 187.154 293.215 186.538 293.216 185.897V79.7328C293.215 79.0911 292.96 78.4758 292.507 78.022C292.054 77.5682 291.439 77.3129 290.798 77.3122H92.0918Z" fill="#F5F5F5"/>
<path d="M246.523 96.0529C258.334 96.0529 267.909 86.4688 267.909 74.6462C267.909 62.8236 258.334 53.2394 246.523 53.2394C234.712 53.2394 225.137 62.8236 225.137 74.6462C225.137 86.4688 234.712 96.0529 246.523 96.0529Z" fill="#FFAF37"/>
<path d="M122.995 50.15C123.35 47.8919 126.206 47.1298 127.647 48.9088L135.789 58.9585L148.527 56.9638C150.782 56.6106 152.399 59.1031 151.158 61.0204L144.157 71.8402L150.026 83.3588C151.066 85.3995 149.208 87.7018 147.001 87.1076L134.53 83.7499L125.415 92.8669C123.802 94.4803 121.038 93.4113 120.913 91.1263L120.213 78.2287L108.716 72.3446C106.678 71.3018 106.827 68.3382 108.958 67.5211L120.991 62.9068L122.995 50.15Z" fill="#FFAF37"/>
<path d="M193.161 8.04875C194.32 7.20715 195.92 8.12708 195.767 9.5471L194.905 17.5693L201.418 22.2919C202.571 23.1282 202.18 24.9409 200.781 25.2422L192.886 26.9422L190.368 34.6138C189.922 35.9729 188.08 36.1728 187.369 34.9394L183.348 27.969L175.276 27.9872C173.847 27.9905 173.1 26.3018 174.059 25.2376L179.472 19.2306L177.003 11.5727C176.566 10.2157 177.947 8.97176 179.251 9.54818L186.615 12.8033L193.161 8.04875Z" fill="#FFAF37"/>
<path d="M255.464 152.584C270.423 152.584 282.55 137.39 282.55 118.647C282.55 99.9044 270.423 84.7103 255.464 84.7103C240.505 84.7103 228.378 99.9044 228.378 118.647C228.378 137.39 240.505 152.584 255.464 152.584Z" fill="#F5F5F5"/>
<path d="M255.538 111.823H255.613L256.952 188.691H254.124L255.538 111.823Z" fill="#F5F5F5"/>
<path d="M260.158 162.712C260.241 162.87 260.258 163.054 260.205 163.223C260.152 163.393 260.035 163.535 259.877 163.618L255.993 165.665L255.369 164.479L259.253 162.432C259.411 162.349 259.594 162.332 259.764 162.384C259.934 162.437 260.075 162.555 260.158 162.712Z" fill="#F5F5F5"/>
<path d="M177.592 152.584C192.551 152.584 204.678 137.39 204.678 118.647C204.678 99.9044 192.551 84.7103 177.592 84.7103C162.633 84.7103 150.506 99.9044 150.506 118.647C150.506 137.39 162.633 152.584 177.592 152.584Z" fill="#F5F5F5"/>
<path d="M182.287 163.983V163.983C182.204 163.826 182.062 163.708 181.892 163.655C181.723 163.603 181.539 163.62 181.382 163.702L178.67 165.132L177.741 111.823H177.666L176.253 188.692H179.08L178.696 166.633L182.006 164.889C182.163 164.806 182.281 164.664 182.333 164.494C182.386 164.324 182.369 164.141 182.287 163.983Z" fill="#F5F5F5"/>
<path d="M216.434 40.438C235.389 40.438 250.795 76.1887 250.795 99.9379C250.795 123.687 235.429 142.94 216.474 142.94C197.519 142.94 182.153 123.687 182.153 99.9379C182.153 76.1887 197.479 40.438 216.434 40.438Z" fill="#117DC1"/>
<path d="M222.422 157.038C222.37 156.939 222.3 156.852 222.214 156.78C222.128 156.709 222.029 156.655 221.923 156.622C221.816 156.589 221.705 156.577 221.594 156.588C221.483 156.598 221.375 156.63 221.276 156.682L217.84 158.493L216.663 90.9449H216.569L214.777 188.346H218.36L217.873 160.395L222.067 158.185C222.165 158.133 222.253 158.062 222.324 157.976C222.395 157.891 222.449 157.792 222.482 157.685C222.515 157.579 222.527 157.467 222.516 157.355C222.506 157.244 222.474 157.136 222.422 157.038Z" fill="#1C1C1C"/>
</g>
<path d="M99.6748 246.79C99.5531 248.473 98.93 249.798 97.8057 250.765C96.6885 251.731 95.2132 252.215 93.3799 252.215C91.3747 252.215 89.7956 251.542 88.6426 250.195C87.4967 248.842 86.9238 246.987 86.9238 244.631V243.675C86.9238 242.171 87.1888 240.846 87.7188 239.7C88.2487 238.554 89.0042 237.677 89.9854 237.068C90.9736 236.452 92.1195 236.145 93.4229 236.145C95.2275 236.145 96.6813 236.628 97.7842 237.595C98.887 238.562 99.5244 239.919 99.6963 241.666H96.4736C96.3949 240.656 96.112 239.926 95.625 239.475C95.1452 239.016 94.4111 238.787 93.4229 238.787C92.3486 238.787 91.543 239.174 91.0059 239.947C90.4759 240.714 90.2038 241.906 90.1895 243.524V244.706C90.1895 246.396 90.4437 247.632 90.9521 248.412C91.4678 249.193 92.277 249.583 93.3799 249.583C94.3753 249.583 95.1165 249.357 95.6035 248.906C96.0977 248.448 96.3805 247.743 96.4521 246.79H99.6748ZM111.695 252H108.58V242.891H104.691V252H101.587V240.377H111.695V252ZM121.073 240.377H124.178V252H121.073V244.824L117.185 252H114.069V240.377H117.185V247.542L121.073 240.377ZM131.386 249.712C131.959 249.712 132.424 249.554 132.782 249.239C133.14 248.924 133.326 248.505 133.341 247.982H136.252C136.245 248.77 136.03 249.493 135.607 250.152C135.185 250.804 134.605 251.312 133.867 251.678C133.137 252.036 132.327 252.215 131.439 252.215C129.778 252.215 128.467 251.688 127.508 250.636C126.548 249.576 126.068 248.115 126.068 246.253V246.049C126.068 244.258 126.545 242.83 127.497 241.763C128.45 240.696 129.757 240.162 131.418 240.162C132.872 240.162 134.035 240.577 134.909 241.408C135.79 242.232 136.238 243.331 136.252 244.706H133.341C133.326 244.104 133.14 243.618 132.782 243.245C132.424 242.866 131.951 242.676 131.364 242.676C130.641 242.676 130.093 242.941 129.721 243.471C129.355 243.993 129.173 244.846 129.173 246.027V246.35C129.173 247.546 129.355 248.405 129.721 248.928C130.086 249.451 130.641 249.712 131.386 249.712ZM137.541 246.081C137.541 244.928 137.763 243.9 138.207 242.998C138.651 242.096 139.288 241.397 140.119 240.903C140.957 240.409 141.927 240.162 143.03 240.162C144.599 240.162 145.877 240.642 146.865 241.602C147.861 242.561 148.416 243.865 148.53 245.512L148.552 246.307C148.552 248.09 148.054 249.522 147.059 250.604C146.063 251.678 144.728 252.215 143.052 252.215C141.376 252.215 140.037 251.678 139.034 250.604C138.039 249.529 137.541 248.068 137.541 246.221V246.081ZM140.646 246.307C140.646 247.41 140.853 248.255 141.269 248.842C141.684 249.422 142.278 249.712 143.052 249.712C143.804 249.712 144.391 249.425 144.813 248.853C145.236 248.272 145.447 247.349 145.447 246.081C145.447 245 145.236 244.162 144.813 243.567C144.391 242.973 143.797 242.676 143.03 242.676C142.271 242.676 141.684 242.973 141.269 243.567C140.853 244.155 140.646 245.068 140.646 246.307ZM155.019 247.714H153.772V252H150.668V240.377H153.772V244.749H154.879L157.414 240.377H161.335L157.532 245.909L161.689 252H157.554L155.019 247.714ZM175.343 240.377H178.447V252H175.343V244.824L171.454 252H168.339V240.377H171.454V247.542L175.343 240.377ZM186.923 243.804C186.923 243.396 186.787 243.08 186.515 242.858C186.25 242.629 185.87 242.515 185.376 242.515C184.868 242.515 184.452 242.622 184.13 242.837C183.815 243.045 183.657 243.342 183.657 243.729H180.553C180.553 242.676 180.99 241.82 181.863 241.161C182.737 240.502 183.854 240.173 185.215 240.173C186.712 240.173 187.886 240.466 188.738 241.054C189.598 241.641 190.027 242.475 190.027 243.557C190.027 244.072 189.87 244.549 189.555 244.985C189.247 245.415 188.81 245.759 188.244 246.017C189.569 246.482 190.231 247.381 190.231 248.713C190.231 249.78 189.773 250.632 188.856 251.27C187.947 251.9 186.733 252.215 185.215 252.215C183.804 252.215 182.644 251.885 181.734 251.227C180.825 250.568 180.37 249.68 180.37 248.562H183.475C183.475 248.956 183.65 249.275 184.001 249.519C184.352 249.762 184.81 249.884 185.376 249.884C185.927 249.884 186.357 249.755 186.665 249.497C186.973 249.239 187.127 248.903 187.127 248.487C187.127 247.979 186.98 247.617 186.687 247.402C186.393 247.18 185.952 247.069 185.365 247.069H183.679V245.05H185.473C186.439 245.021 186.923 244.606 186.923 243.804ZM197.891 241.021C199.38 241.021 200.569 241.516 201.457 242.504C202.345 243.492 202.789 244.835 202.789 246.532V246.683C202.789 248.358 202.295 249.701 201.307 250.711C200.318 251.721 198.99 252.226 197.321 252.226C195.646 252.226 194.31 251.681 193.314 250.593C192.326 249.497 191.832 248.011 191.832 246.135V245.619C191.846 243.005 192.287 240.961 193.153 239.485C194.027 238.003 195.338 237.068 197.085 236.682C198.002 236.481 198.592 236.284 198.857 236.091C199.122 235.89 199.255 235.615 199.255 235.264H201.769C201.769 236.388 201.464 237.233 200.855 237.799C200.254 238.365 199.18 238.801 197.633 239.109C196.716 239.296 195.993 239.657 195.463 240.194C194.933 240.731 194.575 241.487 194.389 242.461C195.377 241.501 196.544 241.021 197.891 241.021ZM197.3 243.535C196.562 243.535 195.982 243.782 195.56 244.276C195.144 244.771 194.937 245.573 194.937 246.683C194.937 247.671 195.141 248.426 195.549 248.949C195.957 249.465 196.548 249.723 197.321 249.723C198.073 249.723 198.653 249.468 199.062 248.96C199.47 248.451 199.677 247.703 199.685 246.715V246.457C199.685 245.505 199.473 244.781 199.051 244.287C198.635 243.786 198.052 243.535 197.3 243.535ZM214.917 246.296C214.917 248.086 214.509 249.522 213.692 250.604C212.883 251.678 211.787 252.215 210.405 252.215C209.231 252.215 208.282 251.807 207.559 250.99V256.469H204.454V240.377H207.333L207.44 241.516C208.192 240.613 209.174 240.162 210.384 240.162C211.816 240.162 212.93 240.692 213.725 241.752C214.52 242.812 214.917 244.273 214.917 246.135V246.296ZM211.812 246.07C211.812 244.989 211.619 244.155 211.232 243.567C210.853 242.98 210.298 242.687 209.567 242.687C208.593 242.687 207.924 243.059 207.559 243.804V248.562C207.938 249.329 208.615 249.712 209.589 249.712C211.071 249.712 211.812 248.498 211.812 246.07ZM223.586 252C223.443 251.721 223.339 251.373 223.274 250.958C222.522 251.796 221.545 252.215 220.342 252.215C219.203 252.215 218.258 251.885 217.506 251.227C216.761 250.568 216.389 249.737 216.389 248.734C216.389 247.503 216.843 246.557 217.753 245.898C218.67 245.24 219.991 244.907 221.717 244.899H223.146V244.233C223.146 243.696 223.006 243.267 222.727 242.944C222.454 242.622 222.021 242.461 221.427 242.461C220.904 242.461 220.492 242.586 220.191 242.837C219.898 243.088 219.751 243.431 219.751 243.868H216.646C216.646 243.195 216.854 242.572 217.27 241.999C217.685 241.426 218.272 240.979 219.031 240.656C219.79 240.327 220.643 240.162 221.588 240.162C223.02 240.162 224.155 240.524 224.993 241.247C225.838 241.963 226.261 242.973 226.261 244.276V249.314C226.268 250.417 226.422 251.252 226.723 251.817V252H223.586ZM221.019 249.841C221.477 249.841 221.899 249.741 222.286 249.54C222.673 249.332 222.959 249.057 223.146 248.713V246.715H221.985C220.431 246.715 219.604 247.252 219.504 248.326L219.493 248.509C219.493 248.896 219.629 249.214 219.901 249.465C220.174 249.715 220.546 249.841 221.019 249.841ZM238.722 252H235.606V247.531H231.75V252H228.646V240.377H231.75V245.039H235.606V240.377H238.722V252ZM251.204 252H248.089V247.531H244.232V252H241.128V240.377H244.232V245.039H248.089V240.377H251.204V252ZM253.127 246.081C253.127 244.928 253.349 243.9 253.793 242.998C254.237 242.096 254.874 241.397 255.705 240.903C256.543 240.409 257.513 240.162 258.616 240.162C260.185 240.162 261.463 240.642 262.451 241.602C263.447 242.561 264.002 243.865 264.116 245.512L264.138 246.307C264.138 248.09 263.64 249.522 262.645 250.604C261.649 251.678 260.313 252.215 258.638 252.215C256.962 252.215 255.623 251.678 254.62 250.604C253.625 249.529 253.127 248.068 253.127 246.221V246.081ZM256.231 246.307C256.231 247.41 256.439 248.255 256.854 248.842C257.27 249.422 257.864 249.712 258.638 249.712C259.39 249.712 259.977 249.425 260.399 248.853C260.822 248.272 261.033 247.349 261.033 246.081C261.033 245 260.822 244.162 260.399 243.567C259.977 242.973 259.382 242.676 258.616 242.676C257.857 242.676 257.27 242.973 256.854 243.567C256.439 244.155 256.231 245.068 256.231 246.307ZM273.967 242.891H269.154V252H266.05V240.377H273.967V242.891ZM274.568 246.081C274.568 244.928 274.79 243.9 275.234 242.998C275.678 242.096 276.316 241.397 277.146 240.903C277.984 240.409 278.955 240.162 280.058 240.162C281.626 240.162 282.904 240.642 283.893 241.602C284.888 242.561 285.443 243.865 285.558 245.512L285.579 246.307C285.579 248.09 285.081 249.522 284.086 250.604C283.09 251.678 281.755 252.215 280.079 252.215C278.403 252.215 277.064 251.678 276.062 250.604C275.066 249.529 274.568 248.068 274.568 246.221V246.081ZM277.673 246.307C277.673 247.41 277.881 248.255 278.296 248.842C278.711 249.422 279.306 249.712 280.079 249.712C280.831 249.712 281.418 249.425 281.841 248.853C282.263 248.272 282.475 247.349 282.475 246.081C282.475 245 282.263 244.162 281.841 243.567C281.418 242.973 280.824 242.676 280.058 242.676C279.299 242.676 278.711 242.973 278.296 243.567C277.881 244.155 277.673 245.068 277.673 246.307ZM303.078 252H299.963V242.891H296.074V252H292.97V240.377H303.078V252ZM309.792 247.606L311.94 240.377H315.271L310.598 253.805L310.34 254.417C309.645 255.935 308.499 256.694 306.902 256.694C306.451 256.694 305.993 256.626 305.527 256.49V254.138L306 254.148C306.587 254.148 307.024 254.059 307.311 253.88C307.604 253.701 307.833 253.404 307.998 252.988L308.363 252.032L304.292 240.377H307.633L309.792 247.606ZM321.179 249.712C321.752 249.712 322.217 249.554 322.575 249.239C322.933 248.924 323.119 248.505 323.134 247.982H326.045C326.038 248.77 325.823 249.493 325.4 250.152C324.978 250.804 324.398 251.312 323.66 251.678C322.93 252.036 322.12 252.215 321.232 252.215C319.571 252.215 318.26 251.688 317.301 250.636C316.341 249.576 315.861 248.115 315.861 246.253V246.049C315.861 244.258 316.338 242.83 317.29 241.763C318.243 240.696 319.549 240.162 321.211 240.162C322.665 240.162 323.828 240.577 324.702 241.408C325.583 242.232 326.031 243.331 326.045 244.706H323.134C323.119 244.104 322.933 243.618 322.575 243.245C322.217 242.866 321.744 242.676 321.157 242.676C320.434 242.676 319.886 242.941 319.514 243.471C319.148 243.993 318.966 244.846 318.966 246.027V246.35C318.966 247.546 319.148 248.405 319.514 248.928C319.879 249.451 320.434 249.712 321.179 249.712ZM337.464 242.869H333.736V252H330.621V242.869H326.958V240.377H337.464V242.869Z" fill="#1C1C1C"/>
<path d="M12.999 288.138H11.3203V285H2.13574V288.146H0.448242L0.439453 283.62H1.48535C2.03613 282.999 2.47266 282.167 2.79492 281.124C3.12305 280.075 3.32812 278.927 3.41016 277.679L3.69141 272.203H11.3467V283.62H13.0166L12.999 288.138ZM3.41016 283.62H9.65039V273.592H5.31738L5.13281 277.354C5.05664 278.824 4.86035 280.078 4.54395 281.115C4.2334 282.152 3.85547 282.987 3.41016 283.62ZM14.335 280.157C14.335 279.226 14.5166 278.388 14.8799 277.644C15.249 276.899 15.7588 276.325 16.4092 275.921C17.0654 275.517 17.8125 275.314 18.6504 275.314C19.9453 275.314 20.9912 275.763 21.7881 276.659C22.5908 277.556 22.9922 278.748 22.9922 280.236V280.351C22.9922 281.276 22.8135 282.108 22.4561 282.847C22.1045 283.579 21.5977 284.15 20.9355 284.561C20.2793 284.971 19.5234 285.176 18.668 285.176C17.3789 285.176 16.333 284.728 15.5303 283.831C14.7334 282.935 14.335 281.748 14.335 280.271V280.157ZM15.9697 280.351C15.9697 281.405 16.2129 282.252 16.6992 282.891C17.1914 283.529 17.8477 283.849 18.668 283.849C19.4941 283.849 20.1504 283.526 20.6367 282.882C21.123 282.231 21.3662 281.323 21.3662 280.157C21.3662 279.114 21.1172 278.271 20.6191 277.626C20.127 276.976 19.4707 276.65 18.6504 276.65C17.8477 276.65 17.2002 276.97 16.708 277.608C16.2158 278.247 15.9697 279.161 15.9697 280.351ZM29.2061 276.035C30.4014 276.035 31.3564 276.437 32.0713 277.239C32.792 278.036 33.1523 279.088 33.1523 280.395V280.544C33.1523 281.44 32.9795 282.243 32.6338 282.952C32.2881 283.655 31.79 284.203 31.1396 284.596C30.4951 284.982 29.751 285.176 28.9072 285.176C27.6299 285.176 26.6016 284.751 25.8223 283.901C25.043 283.046 24.6533 281.9 24.6533 280.465V279.674C24.6533 277.676 25.0225 276.088 25.7607 274.91C26.5049 273.732 27.6006 273.015 29.0479 272.757C29.8682 272.61 30.4219 272.432 30.709 272.221C30.9961 272.01 31.1396 271.72 31.1396 271.351H32.4756C32.4756 272.083 32.3086 272.654 31.9746 273.064C31.6465 273.475 31.1191 273.765 30.3926 273.935L29.1797 274.207C28.2129 274.436 27.4863 274.822 27 275.367C26.5195 275.906 26.2061 276.627 26.0596 277.529C26.9209 276.533 27.9697 276.035 29.2061 276.035ZM28.8896 277.371C28.0928 277.371 27.46 277.641 26.9912 278.18C26.5225 278.713 26.2881 279.454 26.2881 280.403V280.544C26.2881 281.563 26.5225 282.372 26.9912 282.97C27.4658 283.562 28.1045 283.857 28.9072 283.857C29.7158 283.857 30.3545 283.559 30.8232 282.961C31.292 282.363 31.5264 281.49 31.5264 280.342C31.5264 279.445 31.2891 278.728 30.8145 278.188C30.3457 277.644 29.7041 277.371 28.8896 277.371ZM40.8516 285C40.7578 284.812 40.6816 284.479 40.623 283.998C39.8672 284.783 38.9648 285.176 37.916 285.176C36.9785 285.176 36.208 284.912 35.6045 284.385C35.0068 283.852 34.708 283.178 34.708 282.363C34.708 281.373 35.083 280.605 35.833 280.061C36.5889 279.51 37.6494 279.234 39.0146 279.234H40.5967V278.487C40.5967 277.919 40.4268 277.468 40.0869 277.134C39.7471 276.794 39.2461 276.624 38.584 276.624C38.0039 276.624 37.5176 276.771 37.125 277.063C36.7324 277.356 36.5361 277.711 36.5361 278.127H34.9014C34.9014 277.652 35.0684 277.195 35.4023 276.756C35.7422 276.311 36.1992 275.959 36.7734 275.701C37.3535 275.443 37.9893 275.314 38.6807 275.314C39.7764 275.314 40.6348 275.59 41.2559 276.141C41.877 276.686 42.1992 277.438 42.2227 278.399V282.776C42.2227 283.649 42.334 284.344 42.5566 284.859V285H40.8516ZM38.1533 283.761C38.6631 283.761 39.1465 283.629 39.6035 283.365C40.0605 283.102 40.3916 282.759 40.5967 282.337V280.386H39.3223C37.3301 280.386 36.334 280.969 36.334 282.135C36.334 282.645 36.5039 283.043 36.8438 283.33C37.1836 283.617 37.6201 283.761 38.1533 283.761ZM44.9209 285V275.49H48.6299C49.8955 275.49 50.8652 275.713 51.5391 276.158C52.2188 276.598 52.5586 277.245 52.5586 278.101C52.5586 278.54 52.4268 278.938 52.1631 279.296C51.8994 279.647 51.5098 279.917 50.9941 280.104C51.5684 280.239 52.0283 280.503 52.374 280.896C52.7256 281.288 52.9014 281.757 52.9014 282.302C52.9014 283.175 52.5791 283.843 51.9346 284.306C51.2959 284.769 50.3906 285 49.2188 285H44.9209ZM46.5469 280.825V283.69H49.2363C49.916 283.69 50.4229 283.564 50.7568 283.312C51.0967 283.061 51.2666 282.706 51.2666 282.249C51.2666 281.3 50.5693 280.825 49.1748 280.825H46.5469ZM46.5469 279.524H48.6475C50.1709 279.524 50.9326 279.079 50.9326 278.188C50.9326 277.298 50.2119 276.838 48.7705 276.809H46.5469V279.524ZM62.8506 275.49V285H61.2158V276.835H57.9814L57.7881 280.395C57.6826 282.029 57.4072 283.198 56.9619 283.901C56.5225 284.604 55.8223 284.971 54.8613 285H54.2109V283.567L54.6768 283.532C55.2041 283.474 55.582 283.169 55.8105 282.618C56.0391 282.067 56.1855 281.048 56.25 279.56L56.4258 275.49H62.8506ZM72.7295 275.49V285H71.0947V281.3H68.6426L66.4014 285H64.6436L67.0342 281.054C66.4248 280.831 65.9561 280.488 65.6279 280.025C65.3057 279.557 65.1445 279.012 65.1445 278.391C65.1445 277.523 65.4697 276.826 66.1201 276.299C66.7705 275.766 67.6406 275.496 68.7305 275.49H72.7295ZM66.7793 278.408C66.7793 278.871 66.9375 279.246 67.2539 279.533C67.5703 279.814 67.9893 279.958 68.5107 279.964H71.0947V276.809H68.7568C68.1533 276.809 67.6729 276.958 67.3154 277.257C66.958 277.55 66.7793 277.934 66.7793 278.408ZM81.4922 275.49H83.1182V285H81.4922V278.065L77.1064 285H75.4805V275.49H77.1064V282.434L81.4922 275.49ZM81.9316 272.027C81.9316 272.736 81.6885 273.308 81.2021 273.741C80.7217 274.169 80.0889 274.383 79.3037 274.383C78.5186 274.383 77.8828 274.166 77.3965 273.732C76.9102 273.299 76.667 272.73 76.667 272.027H77.9941C77.9941 272.438 78.1055 272.76 78.3281 272.994C78.5508 273.223 78.876 273.337 79.3037 273.337C79.7139 273.337 80.0332 273.223 80.2617 272.994C80.4961 272.766 80.6133 272.443 80.6133 272.027H81.9316ZM92.7949 276.809H89.6045V285H87.9785V276.809H84.8496V275.49H92.7949V276.809ZM97.6201 285.176C96.3311 285.176 95.2822 284.754 94.4736 283.91C93.665 283.061 93.2607 281.927 93.2607 280.509V280.21C93.2607 279.267 93.4395 278.426 93.7969 277.688C94.1602 276.943 94.6641 276.363 95.3086 275.947C95.959 275.525 96.6621 275.314 97.418 275.314C98.6543 275.314 99.6152 275.722 100.301 276.536C100.986 277.351 101.329 278.517 101.329 280.034V280.711H94.8867C94.9102 281.648 95.1826 282.407 95.7041 282.987C96.2314 283.562 96.8994 283.849 97.708 283.849C98.2822 283.849 98.7686 283.731 99.167 283.497C99.5654 283.263 99.9141 282.952 100.213 282.565L101.206 283.339C100.409 284.563 99.2139 285.176 97.6201 285.176ZM97.418 276.65C96.7617 276.65 96.2109 276.891 95.7656 277.371C95.3203 277.846 95.0449 278.514 94.9395 279.375H99.7031V279.252C99.6562 278.426 99.4336 277.787 99.0352 277.336C98.6367 276.879 98.0977 276.65 97.418 276.65ZM113.836 275.49H115.462V285H113.836V278.065L109.45 285H107.824V275.49H109.45V282.434L113.836 275.49ZM123.302 278.092C123.302 277.646 123.132 277.295 122.792 277.037C122.452 276.773 121.986 276.642 121.395 276.642C120.82 276.642 120.34 276.791 119.953 277.09C119.572 277.389 119.382 277.74 119.382 278.145H117.765C117.765 277.318 118.11 276.642 118.802 276.114C119.493 275.587 120.357 275.323 121.395 275.323C122.508 275.323 123.375 275.563 123.996 276.044C124.617 276.519 124.928 277.198 124.928 278.083C124.928 278.511 124.799 278.903 124.541 279.261C124.283 279.618 123.917 279.902 123.442 280.113C124.55 280.488 125.104 281.227 125.104 282.328C125.104 283.201 124.767 283.893 124.093 284.402C123.419 284.912 122.52 285.167 121.395 285.167C120.299 285.167 119.394 284.9 118.679 284.367C117.97 283.828 117.615 283.102 117.615 282.188H119.232C119.232 282.65 119.438 283.049 119.848 283.383C120.264 283.711 120.779 283.875 121.395 283.875C122.016 283.875 122.517 283.731 122.897 283.444C123.278 283.157 123.469 282.785 123.469 282.328C123.469 281.795 123.308 281.414 122.985 281.186C122.669 280.951 122.174 280.834 121.5 280.834H119.874V279.463H121.641C122.748 279.434 123.302 278.977 123.302 278.092ZM126.782 280.157C126.782 279.226 126.964 278.388 127.327 277.644C127.696 276.899 128.206 276.325 128.856 275.921C129.513 275.517 130.26 275.314 131.098 275.314C132.393 275.314 133.438 275.763 134.235 276.659C135.038 277.556 135.439 278.748 135.439 280.236V280.351C135.439 281.276 135.261 282.108 134.903 282.847C134.552 283.579 134.045 284.15 133.383 284.561C132.727 284.971 131.971 285.176 131.115 285.176C129.826 285.176 128.78 284.728 127.978 283.831C127.181 282.935 126.782 281.748 126.782 280.271V280.157ZM128.417 280.351C128.417 281.405 128.66 282.252 129.146 282.891C129.639 283.529 130.295 283.849 131.115 283.849C131.941 283.849 132.598 283.526 133.084 282.882C133.57 282.231 133.813 281.323 133.813 280.157C133.813 279.114 133.564 278.271 133.066 277.626C132.574 276.976 131.918 276.65 131.098 276.65C130.295 276.65 129.647 276.97 129.155 277.608C128.663 278.247 128.417 279.161 128.417 280.351ZM141.653 276.035C142.849 276.035 143.804 276.437 144.519 277.239C145.239 278.036 145.6 279.088 145.6 280.395V280.544C145.6 281.44 145.427 282.243 145.081 282.952C144.735 283.655 144.237 284.203 143.587 284.596C142.942 284.982 142.198 285.176 141.354 285.176C140.077 285.176 139.049 284.751 138.27 283.901C137.49 283.046 137.101 281.9 137.101 280.465V279.674C137.101 277.676 137.47 276.088 138.208 274.91C138.952 273.732 140.048 273.015 141.495 272.757C142.315 272.61 142.869 272.432 143.156 272.221C143.443 272.01 143.587 271.72 143.587 271.351H144.923C144.923 272.083 144.756 272.654 144.422 273.064C144.094 273.475 143.566 273.765 142.84 273.935L141.627 274.207C140.66 274.436 139.934 274.822 139.447 275.367C138.967 275.906 138.653 276.627 138.507 277.529C139.368 276.533 140.417 276.035 141.653 276.035ZM141.337 277.371C140.54 277.371 139.907 277.641 139.438 278.18C138.97 278.713 138.735 279.454 138.735 280.403V280.544C138.735 281.563 138.97 282.372 139.438 282.97C139.913 283.562 140.552 283.857 141.354 283.857C142.163 283.857 142.802 283.559 143.271 282.961C143.739 282.363 143.974 281.49 143.974 280.342C143.974 279.445 143.736 278.728 143.262 278.188C142.793 277.644 142.151 277.371 141.337 277.371ZM155.303 280.351C155.303 281.798 154.972 282.964 154.31 283.849C153.647 284.733 152.751 285.176 151.62 285.176C150.466 285.176 149.558 284.81 148.896 284.077V288.656H147.27V275.49H148.755L148.834 276.545C149.496 275.725 150.416 275.314 151.594 275.314C152.736 275.314 153.639 275.745 154.301 276.606C154.969 277.468 155.303 278.666 155.303 280.201V280.351ZM153.677 280.166C153.677 279.094 153.448 278.247 152.991 277.626C152.534 277.005 151.907 276.694 151.11 276.694C150.126 276.694 149.388 277.131 148.896 278.004V282.548C149.382 283.415 150.126 283.849 151.128 283.849C151.907 283.849 152.525 283.541 152.982 282.926C153.445 282.305 153.677 281.385 153.677 280.166ZM163.248 285C163.154 284.812 163.078 284.479 163.02 283.998C162.264 284.783 161.361 285.176 160.312 285.176C159.375 285.176 158.604 284.912 158.001 284.385C157.403 283.852 157.104 283.178 157.104 282.363C157.104 281.373 157.479 280.605 158.229 280.061C158.985 279.51 160.046 279.234 161.411 279.234H162.993V278.487C162.993 277.919 162.823 277.468 162.483 277.134C162.144 276.794 161.643 276.624 160.98 276.624C160.4 276.624 159.914 276.771 159.521 277.063C159.129 277.356 158.933 277.711 158.933 278.127H157.298C157.298 277.652 157.465 277.195 157.799 276.756C158.139 276.311 158.596 275.959 159.17 275.701C159.75 275.443 160.386 275.314 161.077 275.314C162.173 275.314 163.031 275.59 163.652 276.141C164.273 276.686 164.596 277.438 164.619 278.399V282.776C164.619 283.649 164.73 284.344 164.953 284.859V285H163.248ZM160.55 283.761C161.06 283.761 161.543 283.629 162 283.365C162.457 283.102 162.788 282.759 162.993 282.337V280.386H161.719C159.727 280.386 158.73 280.969 158.73 282.135C158.73 282.645 158.9 283.043 159.24 283.33C159.58 283.617 160.017 283.761 160.55 283.761ZM174.753 280.869H173.61V285H171.984V280.869H170.842L168.179 285H166.122L169.523 280.078L166.447 275.49H168.416L170.868 279.428H171.984V275.49H173.61V279.428H174.718L177.188 275.49H179.156L176.071 280.087L179.473 285H177.416L174.753 280.869ZM184.72 285.176C183.431 285.176 182.382 284.754 181.573 283.91C180.765 283.061 180.36 281.927 180.36 280.509V280.21C180.36 279.267 180.539 278.426 180.896 277.688C181.26 276.943 181.764 276.363 182.408 275.947C183.059 275.525 183.762 275.314 184.518 275.314C185.754 275.314 186.715 275.722 187.4 276.536C188.086 277.351 188.429 278.517 188.429 280.034V280.711H181.986C182.01 281.648 182.282 282.407 182.804 282.987C183.331 283.562 183.999 283.849 184.808 283.849C185.382 283.849 185.868 283.731 186.267 283.497C186.665 283.263 187.014 282.952 187.312 282.565L188.306 283.339C187.509 284.563 186.313 285.176 184.72 285.176ZM184.518 276.65C183.861 276.65 183.311 276.891 182.865 277.371C182.42 277.846 182.145 278.514 182.039 279.375H186.803V279.252C186.756 278.426 186.533 277.787 186.135 277.336C185.736 276.879 185.197 276.65 184.518 276.65ZM198.088 285H196.462V280.939H192.094V285H190.459V275.49H192.094V279.612H196.462V275.49H198.088V285ZM206.859 275.49H208.485V285H206.859V278.065L202.474 285H200.848V275.49H202.474V282.434L206.859 275.49ZM218.364 275.49V285H216.729V281.3H214.277L212.036 285H210.278L212.669 281.054C212.06 280.831 211.591 280.488 211.263 280.025C210.94 279.557 210.779 279.012 210.779 278.391C210.779 277.523 211.104 276.826 211.755 276.299C212.405 275.766 213.275 275.496 214.365 275.49H218.364ZM212.414 278.408C212.414 278.871 212.572 279.246 212.889 279.533C213.205 279.814 213.624 279.958 214.146 279.964H216.729V276.809H214.392C213.788 276.809 213.308 276.958 212.95 277.257C212.593 277.55 212.414 277.934 212.414 278.408ZM220.922 287.549L219.999 286.916C220.55 286.148 220.837 285.357 220.86 284.543V283.075H222.451V284.35C222.451 284.941 222.305 285.533 222.012 286.125C221.725 286.717 221.361 287.191 220.922 287.549ZM236.742 285H235.116V280.939H230.748V285H229.113V275.49H230.748V279.612H235.116V275.49H236.742V285ZM245.232 285C245.139 284.812 245.062 284.479 245.004 283.998C244.248 284.783 243.346 285.176 242.297 285.176C241.359 285.176 240.589 284.912 239.985 284.385C239.388 283.852 239.089 283.178 239.089 282.363C239.089 281.373 239.464 280.605 240.214 280.061C240.97 279.51 242.03 279.234 243.396 279.234H244.978V278.487C244.978 277.919 244.808 277.468 244.468 277.134C244.128 276.794 243.627 276.624 242.965 276.624C242.385 276.624 241.898 276.771 241.506 277.063C241.113 277.356 240.917 277.711 240.917 278.127H239.282C239.282 277.652 239.449 277.195 239.783 276.756C240.123 276.311 240.58 275.959 241.154 275.701C241.734 275.443 242.37 275.314 243.062 275.314C244.157 275.314 245.016 275.59 245.637 276.141C246.258 276.686 246.58 277.438 246.604 278.399V282.776C246.604 283.649 246.715 284.344 246.938 284.859V285H245.232ZM242.534 283.761C243.044 283.761 243.527 283.629 243.984 283.365C244.441 283.102 244.772 282.759 244.978 282.337V280.386H243.703C241.711 280.386 240.715 280.969 240.715 282.135C240.715 282.645 240.885 283.043 241.225 283.33C241.564 283.617 242.001 283.761 242.534 283.761ZM256.737 280.869H255.595V285H253.969V280.869H252.826L250.163 285H248.106L251.508 280.078L248.432 275.49H250.4L252.853 279.428H253.969V275.49H255.595V279.428H256.702L259.172 275.49H261.141L258.056 280.087L261.457 285H259.4L256.737 280.869ZM269.086 275.49H270.712V285H269.086V278.065L264.7 285H263.074V275.49H264.7V282.434L269.086 275.49ZM278.798 282.847L282.032 275.49H284.062V285H282.437V278.083L279.36 285H278.235L275.098 277.934V285H273.472V275.49H275.581L278.798 282.847ZM292.553 285C292.459 284.812 292.383 284.479 292.324 283.998C291.568 284.783 290.666 285.176 289.617 285.176C288.68 285.176 287.909 284.912 287.306 284.385C286.708 283.852 286.409 283.178 286.409 282.363C286.409 281.373 286.784 280.605 287.534 280.061C288.29 279.51 289.351 279.234 290.716 279.234H292.298V278.487C292.298 277.919 292.128 277.468 291.788 277.134C291.448 276.794 290.947 276.624 290.285 276.624C289.705 276.624 289.219 276.771 288.826 277.063C288.434 277.356 288.237 277.711 288.237 278.127H286.603C286.603 277.652 286.77 277.195 287.104 276.756C287.443 276.311 287.9 275.959 288.475 275.701C289.055 275.443 289.69 275.314 290.382 275.314C291.478 275.314 292.336 275.59 292.957 276.141C293.578 276.686 293.9 277.438 293.924 278.399V282.776C293.924 283.649 294.035 284.344 294.258 284.859V285H292.553ZM289.854 283.761C290.364 283.761 290.848 283.629 291.305 283.365C291.762 283.102 292.093 282.759 292.298 282.337V280.386H291.023C289.031 280.386 288.035 280.969 288.035 282.135C288.035 282.645 288.205 283.043 288.545 283.33C288.885 283.617 289.321 283.761 289.854 283.761ZM303.741 275.49V285H302.106V281.3H299.654L297.413 285H295.655L298.046 281.054C297.437 280.831 296.968 280.488 296.64 280.025C296.317 279.557 296.156 279.012 296.156 278.391C296.156 277.523 296.481 276.826 297.132 276.299C297.782 275.766 298.652 275.496 299.742 275.49H303.741ZM297.791 278.408C297.791 278.871 297.949 279.246 298.266 279.533C298.582 279.814 299.001 279.958 299.522 279.964H302.106V276.809H299.769C299.165 276.809 298.685 276.958 298.327 277.257C297.97 277.55 297.791 277.934 297.791 278.408ZM318.586 285H316.96V280.939H312.592V285H310.957V275.49H312.592V279.612H316.96V275.49H318.586V285ZM327.076 285C326.982 284.812 326.906 284.479 326.848 283.998C326.092 284.783 325.189 285.176 324.141 285.176C323.203 285.176 322.433 284.912 321.829 284.385C321.231 283.852 320.933 283.178 320.933 282.363C320.933 281.373 321.308 280.605 322.058 280.061C322.813 279.51 323.874 279.234 325.239 279.234H326.821V278.487C326.821 277.919 326.651 277.468 326.312 277.134C325.972 276.794 325.471 276.624 324.809 276.624C324.229 276.624 323.742 276.771 323.35 277.063C322.957 277.356 322.761 277.711 322.761 278.127H321.126C321.126 277.652 321.293 277.195 321.627 276.756C321.967 276.311 322.424 275.959 322.998 275.701C323.578 275.443 324.214 275.314 324.905 275.314C326.001 275.314 326.859 275.59 327.48 276.141C328.102 276.686 328.424 277.438 328.447 278.399V282.776C328.447 283.649 328.559 284.344 328.781 284.859V285H327.076ZM324.378 283.761C324.888 283.761 325.371 283.629 325.828 283.365C326.285 283.102 326.616 282.759 326.821 282.337V280.386H325.547C323.555 280.386 322.559 280.969 322.559 282.135C322.559 282.645 322.729 283.043 323.068 283.33C323.408 283.617 323.845 283.761 324.378 283.761ZM340.69 278.092C340.69 277.646 340.521 277.295 340.181 277.037C339.841 276.773 339.375 276.642 338.783 276.642C338.209 276.642 337.729 276.791 337.342 277.09C336.961 277.389 336.771 277.74 336.771 278.145H335.153C335.153 277.318 335.499 276.642 336.19 276.114C336.882 275.587 337.746 275.323 338.783 275.323C339.896 275.323 340.764 275.563 341.385 276.044C342.006 276.519 342.316 277.198 342.316 278.083C342.316 278.511 342.188 278.903 341.93 279.261C341.672 279.618 341.306 279.902 340.831 280.113C341.938 280.488 342.492 281.227 342.492 282.328C342.492 283.201 342.155 283.893 341.481 284.402C340.808 284.912 339.908 285.167 338.783 285.167C337.688 285.167 336.782 284.9 336.067 284.367C335.358 283.828 335.004 283.102 335.004 282.188H336.621C336.621 282.65 336.826 283.049 337.236 283.383C337.652 283.711 338.168 283.875 338.783 283.875C339.404 283.875 339.905 283.731 340.286 283.444C340.667 283.157 340.857 282.785 340.857 282.328C340.857 281.795 340.696 281.414 340.374 281.186C340.058 280.951 339.562 280.834 338.889 280.834H337.263V279.463H339.029C340.137 279.434 340.69 278.977 340.69 278.092ZM344.751 285V275.49H348.46C349.726 275.49 350.695 275.713 351.369 276.158C352.049 276.598 352.389 277.245 352.389 278.101C352.389 278.54 352.257 278.938 351.993 279.296C351.729 279.647 351.34 279.917 350.824 280.104C351.398 280.239 351.858 280.503 352.204 280.896C352.556 281.288 352.731 281.757 352.731 282.302C352.731 283.175 352.409 283.843 351.765 284.306C351.126 284.769 350.221 285 349.049 285H344.751ZM346.377 280.825V283.69H349.066C349.746 283.69 350.253 283.564 350.587 283.312C350.927 283.061 351.097 282.706 351.097 282.249C351.097 281.3 350.399 280.825 349.005 280.825H346.377ZM346.377 279.524H348.478C350.001 279.524 350.763 279.079 350.763 278.188C350.763 277.298 350.042 276.838 348.601 276.809H346.377V279.524ZM358.831 285.176C357.542 285.176 356.493 284.754 355.685 283.91C354.876 283.061 354.472 281.927 354.472 280.509V280.21C354.472 279.267 354.65 278.426 355.008 277.688C355.371 276.943 355.875 276.363 356.52 275.947C357.17 275.525 357.873 275.314 358.629 275.314C359.865 275.314 360.826 275.722 361.512 276.536C362.197 277.351 362.54 278.517 362.54 280.034V280.711H356.098C356.121 281.648 356.394 282.407 356.915 282.987C357.442 283.562 358.11 283.849 358.919 283.849C359.493 283.849 359.979 283.731 360.378 283.497C360.776 283.263 361.125 282.952 361.424 282.565L362.417 283.339C361.62 284.563 360.425 285.176 358.831 285.176ZM358.629 276.65C357.973 276.65 357.422 276.891 356.977 277.371C356.531 277.846 356.256 278.514 356.15 279.375H360.914V279.252C360.867 278.426 360.645 277.787 360.246 277.336C359.848 276.879 359.309 276.65 358.629 276.65ZM369.659 278.092C369.659 277.646 369.489 277.295 369.149 277.037C368.81 276.773 368.344 276.642 367.752 276.642C367.178 276.642 366.697 276.791 366.311 277.09C365.93 277.389 365.739 277.74 365.739 278.145H364.122C364.122 277.318 364.468 276.642 365.159 276.114C365.851 275.587 366.715 275.323 367.752 275.323C368.865 275.323 369.732 275.563 370.354 276.044C370.975 276.519 371.285 277.198 371.285 278.083C371.285 278.511 371.156 278.903 370.898 279.261C370.641 279.618 370.274 279.902 369.8 280.113C370.907 280.488 371.461 281.227 371.461 282.328C371.461 283.201 371.124 283.893 370.45 284.402C369.776 284.912 368.877 285.167 367.752 285.167C366.656 285.167 365.751 284.9 365.036 284.367C364.327 283.828 363.973 283.102 363.973 282.188H365.59C365.59 282.65 365.795 283.049 366.205 283.383C366.621 283.711 367.137 283.875 367.752 283.875C368.373 283.875 368.874 283.731 369.255 283.444C369.636 283.157 369.826 282.785 369.826 282.328C369.826 281.795 369.665 281.414 369.343 281.186C369.026 280.951 368.531 280.834 367.857 280.834H366.231V279.463H367.998C369.105 279.434 369.659 278.977 369.659 278.092ZM373.491 283.673L374.054 282.979C374.687 282.158 375.047 280.928 375.135 279.287L375.284 275.49H381.41V283.673H382.632V287.795H381.006V285H374.37V287.795H372.744L372.753 283.673H373.491ZM375.416 283.673H379.784V276.993H376.857L376.761 279.261C376.661 281.153 376.213 282.624 375.416 283.673ZM384.003 280.157C384.003 279.226 384.185 278.388 384.548 277.644C384.917 276.899 385.427 276.325 386.077 275.921C386.733 275.517 387.48 275.314 388.318 275.314C389.613 275.314 390.659 275.763 391.456 276.659C392.259 277.556 392.66 278.748 392.66 280.236V280.351C392.66 281.276 392.481 282.108 392.124 282.847C391.772 283.579 391.266 284.15 390.604 284.561C389.947 284.971 389.191 285.176 388.336 285.176C387.047 285.176 386.001 284.728 385.198 283.831C384.401 282.935 384.003 281.748 384.003 280.271V280.157ZM385.638 280.351C385.638 281.405 385.881 282.252 386.367 282.891C386.859 283.529 387.516 283.849 388.336 283.849C389.162 283.849 389.818 283.526 390.305 282.882C390.791 282.231 391.034 281.323 391.034 280.157C391.034 279.114 390.785 278.271 390.287 277.626C389.795 276.976 389.139 276.65 388.318 276.65C387.516 276.65 386.868 276.97 386.376 277.608C385.884 278.247 385.638 279.161 385.638 280.351ZM401.88 285H400.245V281.555C399.53 281.742 398.798 281.836 398.048 281.836C396.858 281.836 395.95 281.531 395.323 280.922C394.702 280.312 394.386 279.445 394.374 278.32V275.481H396V278.373C396.029 279.791 396.712 280.5 398.048 280.5C398.798 280.5 399.53 280.406 400.245 280.219V275.49H401.88V285ZM407.452 280.948H406.266V285H404.631V275.49H406.266V279.516H407.329L410.528 275.49H412.497L408.735 280.061L412.813 285H410.748L407.452 280.948ZM420.363 275.49H421.989V285H420.363V278.065L415.978 285H414.352V275.49H415.978V282.434L420.363 275.49Z" fill="#1C1C1C"/>
<defs>
<clipPath id="clip0_101_9365">
<rect width="264" height="198" fill="white" transform="translate(80)"/>
</clipPath>
</defs>
</svg>
