<svg width="264" height="290" viewBox="0 0 264 290" fill="none" xmlns="http://www.w3.org/2000/svg">
<path d="M42.6748 246.79C42.5531 248.473 41.93 249.798 40.8057 250.765C39.6885 251.731 38.2132 252.215 36.3799 252.215C34.3747 252.215 32.7956 251.542 31.6426 250.195C30.4967 248.842 29.9238 246.987 29.9238 244.631V243.675C29.9238 242.171 30.1888 240.846 30.7188 239.7C31.2487 238.554 32.0042 237.677 32.9854 237.068C33.9736 236.452 35.1195 236.145 36.4229 236.145C38.2275 236.145 39.6813 236.628 40.7842 237.595C41.887 238.562 42.5244 239.919 42.6963 241.666H39.4736C39.3949 240.656 39.112 239.926 38.625 239.475C38.1452 239.016 37.4111 238.787 36.4229 238.787C35.3486 238.787 34.543 239.174 34.0059 239.947C33.4759 240.714 33.2038 241.906 33.1895 243.524V244.706C33.1895 246.396 33.4437 247.632 33.9521 248.412C34.4678 249.193 35.277 249.583 36.3799 249.583C37.3753 249.583 38.1165 249.357 38.6035 248.906C39.0977 248.448 39.3805 247.743 39.4521 246.79H42.6748ZM49.9365 252.215C48.2321 252.215 46.8428 251.692 45.7686 250.646C44.7015 249.601 44.168 248.208 44.168 246.468V246.167C44.168 245 44.3936 243.958 44.8447 243.041C45.2959 242.117 45.9333 241.408 46.7568 240.914C47.5876 240.413 48.5329 240.162 49.5928 240.162C51.1826 240.162 52.4323 240.663 53.3418 241.666C54.2585 242.669 54.7168 244.09 54.7168 245.931V247.198H47.3154C47.4157 247.957 47.7165 248.566 48.2178 249.024C48.7262 249.483 49.3672 249.712 50.1406 249.712C51.3366 249.712 52.2712 249.279 52.9443 248.412L54.4697 250.12C54.0042 250.779 53.374 251.295 52.5791 251.667C51.7842 252.032 50.9033 252.215 49.9365 252.215ZM49.582 242.676C48.9661 242.676 48.4648 242.883 48.0781 243.299C47.6986 243.714 47.4551 244.309 47.3477 245.082H51.666V244.835C51.6517 244.147 51.4655 243.618 51.1074 243.245C50.7493 242.866 50.2409 242.676 49.582 242.676ZM66.9521 246.296C66.9521 248.086 66.5439 249.522 65.7275 250.604C64.9183 251.678 63.8226 252.215 62.4404 252.215C61.266 252.215 60.3171 251.807 59.5938 250.99V256.469H56.4893V240.377H59.3682L59.4756 241.516C60.2275 240.613 61.2087 240.162 62.4189 240.162C63.8512 240.162 64.9648 240.692 65.7598 241.752C66.5547 242.812 66.9521 244.273 66.9521 246.135V246.296ZM63.8477 246.07C63.8477 244.989 63.6543 244.155 63.2676 243.567C62.888 242.98 62.333 242.687 61.6025 242.687C60.6286 242.687 59.959 243.059 59.5938 243.804V248.562C59.9733 249.329 60.6501 249.712 61.624 249.712C63.1064 249.712 63.8477 248.498 63.8477 246.07ZM69.0898 252V240.377H73.9453C75.528 240.377 76.7419 240.656 77.5869 241.215C78.432 241.773 78.8545 242.576 78.8545 243.621C78.8545 244.158 78.6755 244.642 78.3174 245.071C77.9665 245.494 77.4508 245.82 76.7705 246.049C77.6012 246.206 78.2529 246.518 78.7256 246.983C79.2054 247.442 79.4453 248.007 79.4453 248.681C79.4453 249.762 79.0371 250.586 78.2207 251.151C77.4115 251.717 76.2334 252 74.6865 252H69.0898ZM72.1943 247.177V249.519H74.6973C75.793 249.519 76.3408 249.135 76.3408 248.369C76.3408 247.589 75.818 247.191 74.7725 247.177H72.1943ZM72.1943 245.093H74.1172C75.2057 245.078 75.75 244.728 75.75 244.04C75.75 243.618 75.5996 243.317 75.2988 243.138C75.0052 242.959 74.554 242.869 73.9453 242.869H72.1943V245.093ZM86.6963 252.215C84.9919 252.215 83.6025 251.692 82.5283 250.646C81.4613 249.601 80.9277 248.208 80.9277 246.468V246.167C80.9277 245 81.1533 243.958 81.6045 243.041C82.0557 242.117 82.693 241.408 83.5166 240.914C84.3473 240.413 85.2926 240.162 86.3525 240.162C87.9424 240.162 89.1921 240.663 90.1016 241.666C91.0182 242.669 91.4766 244.09 91.4766 245.931V247.198H84.0752C84.1755 247.957 84.4762 248.566 84.9775 249.024C85.486 249.483 86.127 249.712 86.9004 249.712C88.0964 249.712 89.0309 249.279 89.7041 248.412L91.2295 250.12C90.764 250.779 90.1338 251.295 89.3389 251.667C88.5439 252.032 87.6631 252.215 86.6963 252.215ZM86.3418 242.676C85.7259 242.676 85.2246 242.883 84.8379 243.299C84.4583 243.714 84.2148 244.309 84.1074 245.082H88.4258V244.835C88.4115 244.147 88.2253 243.618 87.8672 243.245C87.5091 242.866 87.0007 242.676 86.3418 242.676ZM103.712 246.296C103.712 248.086 103.304 249.522 102.487 250.604C101.678 251.678 100.582 252.215 99.2002 252.215C98.0257 252.215 97.0768 251.807 96.3535 250.99V256.469H93.249V240.377H96.1279L96.2354 241.516C96.9873 240.613 97.9684 240.162 99.1787 240.162C100.611 240.162 101.725 240.692 102.52 241.752C103.314 242.812 103.712 244.273 103.712 246.135V246.296ZM100.607 246.07C100.607 244.989 100.414 244.155 100.027 243.567C99.6478 242.98 99.0928 242.687 98.3623 242.687C97.3883 242.687 96.7188 243.059 96.3535 243.804V248.562C96.7331 249.329 97.4098 249.712 98.3838 249.712C99.8662 249.712 100.607 248.498 100.607 246.07ZM121.2 252H118.085V247.531H114.229V252H111.124V240.377H114.229V245.039H118.085V240.377H121.2V252ZM128.956 252.215C127.252 252.215 125.862 251.692 124.788 250.646C123.721 249.601 123.188 248.208 123.188 246.468V246.167C123.188 245 123.413 243.958 123.864 243.041C124.315 242.117 124.953 241.408 125.776 240.914C126.607 240.413 127.552 240.162 128.612 240.162C130.202 240.162 131.452 240.663 132.361 241.666C133.278 242.669 133.736 244.09 133.736 245.931V247.198H126.335C126.435 247.957 126.736 248.566 127.237 249.024C127.746 249.483 128.387 249.712 129.16 249.712C130.356 249.712 131.291 249.279 131.964 248.412L133.489 250.12C133.024 250.779 132.394 251.295 131.599 251.667C130.804 252.032 129.923 252.215 128.956 252.215ZM128.602 242.676C127.986 242.676 127.484 242.883 127.098 243.299C126.718 243.714 126.475 244.309 126.367 245.082H130.686V244.835C130.671 244.147 130.485 243.618 130.127 243.245C129.769 242.866 129.26 242.676 128.602 242.676ZM140.504 246.081C140.504 244.928 140.726 243.9 141.17 242.998C141.614 242.096 142.251 241.397 143.082 240.903C143.92 240.409 144.89 240.162 145.993 240.162C147.562 240.162 148.84 240.642 149.828 241.602C150.824 242.561 151.379 243.865 151.493 245.512L151.515 246.307C151.515 248.09 151.017 249.522 150.021 250.604C149.026 251.678 147.69 252.215 146.015 252.215C144.339 252.215 143 251.678 141.997 250.604C141.002 249.529 140.504 248.068 140.504 246.221V246.081ZM143.608 246.307C143.608 247.41 143.816 248.255 144.231 248.842C144.647 249.422 145.241 249.712 146.015 249.712C146.767 249.712 147.354 249.425 147.776 248.853C148.199 248.272 148.41 247.349 148.41 246.081C148.41 245 148.199 244.162 147.776 243.567C147.354 242.973 146.759 242.676 145.993 242.676C145.234 242.676 144.647 242.973 144.231 243.567C143.816 244.155 143.608 245.068 143.608 246.307ZM162.751 242.869H159.023V252H155.908V242.869H152.245V240.377H162.751V242.869ZM164.523 252V240.377H169.379C170.962 240.377 172.175 240.656 173.021 241.215C173.866 241.773 174.288 242.576 174.288 243.621C174.288 244.158 174.109 244.642 173.751 245.071C173.4 245.494 172.884 245.82 172.204 246.049C173.035 246.206 173.687 246.518 174.159 246.983C174.639 247.442 174.879 248.007 174.879 248.681C174.879 249.762 174.471 250.586 173.654 251.151C172.845 251.717 171.667 252 170.12 252H164.523ZM167.628 247.177V249.519H170.131C171.227 249.519 171.774 249.135 171.774 248.369C171.774 247.589 171.252 247.191 170.206 247.177H167.628ZM167.628 245.093H169.551C170.639 245.078 171.184 244.728 171.184 244.04C171.184 243.618 171.033 243.317 170.732 243.138C170.439 242.959 169.988 242.869 169.379 242.869H167.628V245.093ZM182.13 252.215C180.425 252.215 179.036 251.692 177.962 250.646C176.895 249.601 176.361 248.208 176.361 246.468V246.167C176.361 245 176.587 243.958 177.038 243.041C177.489 242.117 178.127 241.408 178.95 240.914C179.781 240.413 180.726 240.162 181.786 240.162C183.376 240.162 184.626 240.663 185.535 241.666C186.452 242.669 186.91 244.09 186.91 245.931V247.198H179.509C179.609 247.957 179.91 248.566 180.411 249.024C180.92 249.483 181.561 249.712 182.334 249.712C183.53 249.712 184.465 249.279 185.138 248.412L186.663 250.12C186.198 250.779 185.567 251.295 184.772 251.667C183.978 252.032 183.097 252.215 182.13 252.215ZM181.775 242.676C181.16 242.676 180.658 242.883 180.271 243.299C179.892 243.714 179.648 244.309 179.541 245.082H183.859V244.835C183.845 244.147 183.659 243.618 183.301 243.245C182.943 242.866 182.434 242.676 181.775 242.676ZM198.479 252H195.375V248.348C194.795 248.455 194.254 248.509 193.753 248.509C191.998 248.509 190.677 248.136 189.789 247.392C188.901 246.647 188.45 245.558 188.436 244.126V240.377H191.54V244.126C191.547 244.799 191.712 245.283 192.034 245.576C192.356 245.863 192.929 246.006 193.753 246.006C194.269 246.006 194.809 245.945 195.375 245.823V240.377H198.479V252ZM207.6 252C207.456 251.721 207.353 251.373 207.288 250.958C206.536 251.796 205.559 252.215 204.355 252.215C203.217 252.215 202.271 251.885 201.52 251.227C200.775 250.568 200.402 249.737 200.402 248.734C200.402 247.503 200.857 246.557 201.767 245.898C202.683 245.24 204.005 244.907 205.73 244.899H207.159V244.233C207.159 243.696 207.02 243.267 206.74 242.944C206.468 242.622 206.035 242.461 205.44 242.461C204.918 242.461 204.506 242.586 204.205 242.837C203.911 243.088 203.765 243.431 203.765 243.868H200.66C200.66 243.195 200.868 242.572 201.283 241.999C201.699 241.426 202.286 240.979 203.045 240.656C203.804 240.327 204.656 240.162 205.602 240.162C207.034 240.162 208.169 240.524 209.007 241.247C209.852 241.963 210.274 242.973 210.274 244.276V249.314C210.282 250.417 210.436 251.252 210.736 251.817V252H207.6ZM205.032 249.841C205.491 249.841 205.913 249.741 206.3 249.54C206.687 249.332 206.973 249.057 207.159 248.713V246.715H205.999C204.445 246.715 203.618 247.252 203.518 248.326L203.507 248.509C203.507 248.896 203.643 249.214 203.915 249.465C204.187 249.715 204.56 249.841 205.032 249.841ZM218.009 252.215C216.304 252.215 214.915 251.692 213.841 250.646C212.774 249.601 212.24 248.208 212.24 246.468V246.167C212.24 245 212.466 243.958 212.917 243.041C213.368 242.117 214.006 241.408 214.829 240.914C215.66 240.413 216.605 240.162 217.665 240.162C219.255 240.162 220.505 240.663 221.414 241.666C222.331 242.669 222.789 244.09 222.789 245.931V247.198H215.388C215.488 247.957 215.789 248.566 216.29 249.024C216.799 249.483 217.439 249.712 218.213 249.712C219.409 249.712 220.343 249.279 221.017 248.412L222.542 250.12C222.076 250.779 221.446 251.295 220.651 251.667C219.856 252.032 218.976 252.215 218.009 252.215ZM217.654 242.676C217.038 242.676 216.537 242.883 216.15 243.299C215.771 243.714 215.527 244.309 215.42 245.082H219.738V244.835C219.724 244.147 219.538 243.618 219.18 243.245C218.822 242.866 218.313 242.676 217.654 242.676ZM234.079 242.869H230.352V252H227.236V242.869H223.573V240.377H234.079V242.869Z" fill="#1C1C1C"/>
<path d="M36.8799 279.63L39.8242 272.203H41.7842L37.2578 282.864C36.9531 283.544 36.6689 284.027 36.4053 284.314C36.1416 284.596 35.8311 284.812 35.4736 284.965C35.1221 285.111 34.6797 285.185 34.1465 285.185C33.6836 285.185 33.3877 285.158 33.2588 285.105L33.3115 283.77L34.1113 283.805C34.7266 283.805 35.1836 283.509 35.4824 282.917L35.7021 282.46L36.0361 281.678L31.6768 272.203H33.5664L36.8799 279.63ZM51.1357 280.869H49.9932V285H48.3672V280.869H47.2246L44.5615 285H42.5049L45.9062 280.078L42.8301 275.49H44.7988L47.251 279.428H48.3672V275.49H49.9932V279.428H51.1006L53.5703 275.49H55.5391L52.4541 280.087L55.8555 285H53.7988L51.1357 280.869ZM61.1025 285.176C59.8135 285.176 58.7646 284.754 57.9561 283.91C57.1475 283.061 56.7432 281.927 56.7432 280.509V280.21C56.7432 279.267 56.9219 278.426 57.2793 277.688C57.6426 276.943 58.1465 276.363 58.791 275.947C59.4414 275.525 60.1445 275.314 60.9004 275.314C62.1367 275.314 63.0977 275.722 63.7832 276.536C64.4688 277.351 64.8115 278.517 64.8115 280.034V280.711H58.3691C58.3926 281.648 58.665 282.407 59.1865 282.987C59.7139 283.562 60.3818 283.849 61.1904 283.849C61.7646 283.849 62.251 283.731 62.6494 283.497C63.0479 283.263 63.3965 282.952 63.6953 282.565L64.6885 283.339C63.8916 284.563 62.6963 285.176 61.1025 285.176ZM60.9004 276.65C60.2441 276.65 59.6934 276.891 59.248 277.371C58.8027 277.846 58.5273 278.514 58.4219 279.375H63.1855V279.252C63.1387 278.426 62.916 277.787 62.5176 277.336C62.1191 276.879 61.5801 276.65 60.9004 276.65ZM79.1992 280.351C79.1992 281.798 78.8682 282.964 78.2061 283.849C77.5439 284.733 76.6475 285.176 75.5166 285.176C74.3623 285.176 73.4541 284.81 72.792 284.077V288.656H71.166V275.49H72.6514L72.7305 276.545C73.3926 275.725 74.3125 275.314 75.4902 275.314C76.6328 275.314 77.5352 275.745 78.1973 276.606C78.8652 277.468 79.1992 278.666 79.1992 280.201V280.351ZM77.5732 280.166C77.5732 279.094 77.3447 278.247 76.8877 277.626C76.4307 277.005 75.8037 276.694 75.0068 276.694C74.0225 276.694 73.2842 277.131 72.792 278.004V282.548C73.2783 283.415 74.0225 283.849 75.0244 283.849C75.8037 283.849 76.4219 283.541 76.8789 282.926C77.3418 282.305 77.5732 281.385 77.5732 280.166ZM87.1445 285C87.0508 284.812 86.9746 284.479 86.916 283.998C86.1602 284.783 85.2578 285.176 84.209 285.176C83.2715 285.176 82.501 284.912 81.8975 284.385C81.2998 283.852 81.001 283.178 81.001 282.363C81.001 281.373 81.376 280.605 82.126 280.061C82.8818 279.51 83.9424 279.234 85.3076 279.234H86.8896V278.487C86.8896 277.919 86.7197 277.468 86.3799 277.134C86.04 276.794 85.5391 276.624 84.877 276.624C84.2969 276.624 83.8105 276.771 83.418 277.063C83.0254 277.356 82.8291 277.711 82.8291 278.127H81.1943C81.1943 277.652 81.3613 277.195 81.6953 276.756C82.0352 276.311 82.4922 275.959 83.0664 275.701C83.6465 275.443 84.2822 275.314 84.9736 275.314C86.0693 275.314 86.9277 275.59 87.5488 276.141C88.1699 276.686 88.4922 277.438 88.5156 278.399V282.776C88.5156 283.649 88.627 284.344 88.8496 284.859V285H87.1445ZM84.4463 283.761C84.9561 283.761 85.4395 283.629 85.8965 283.365C86.3535 283.102 86.6846 282.759 86.8896 282.337V280.386H85.6152C83.623 280.386 82.627 280.969 82.627 282.135C82.627 282.645 82.7969 283.043 83.1367 283.33C83.4766 283.617 83.9131 283.761 84.4463 283.761ZM95.2393 276.035C96.4346 276.035 97.3896 276.437 98.1045 277.239C98.8252 278.036 99.1855 279.088 99.1855 280.395V280.544C99.1855 281.44 99.0127 282.243 98.667 282.952C98.3213 283.655 97.8232 284.203 97.1729 284.596C96.5283 284.982 95.7842 285.176 94.9404 285.176C93.6631 285.176 92.6348 284.751 91.8555 283.901C91.0762 283.046 90.6865 281.9 90.6865 280.465V279.674C90.6865 277.676 91.0557 276.088 91.7939 274.91C92.5381 273.732 93.6338 273.015 95.0811 272.757C95.9014 272.61 96.4551 272.432 96.7422 272.221C97.0293 272.01 97.1729 271.72 97.1729 271.351H98.5088C98.5088 272.083 98.3418 272.654 98.0078 273.064C97.6797 273.475 97.1523 273.765 96.4258 273.935L95.2129 274.207C94.2461 274.436 93.5195 274.822 93.0332 275.367C92.5527 275.906 92.2393 276.627 92.0928 277.529C92.9541 276.533 94.0029 276.035 95.2393 276.035ZM94.9229 277.371C94.126 277.371 93.4932 277.641 93.0244 278.18C92.5557 278.713 92.3213 279.454 92.3213 280.403V280.544C92.3213 281.563 92.5557 282.372 93.0244 282.97C93.499 283.562 94.1377 283.857 94.9404 283.857C95.749 283.857 96.3877 283.559 96.8564 282.961C97.3252 282.363 97.5596 281.49 97.5596 280.342C97.5596 279.445 97.3223 278.728 96.8477 278.188C96.3789 277.644 95.7373 277.371 94.9229 277.371ZM100.583 280.157C100.583 279.226 100.765 278.388 101.128 277.644C101.497 276.899 102.007 276.325 102.657 275.921C103.313 275.517 104.061 275.314 104.898 275.314C106.193 275.314 107.239 275.763 108.036 276.659C108.839 277.556 109.24 278.748 109.24 280.236V280.351C109.24 281.276 109.062 282.108 108.704 282.847C108.353 283.579 107.846 284.15 107.184 284.561C106.527 284.971 105.771 285.176 104.916 285.176C103.627 285.176 102.581 284.728 101.778 283.831C100.981 282.935 100.583 281.748 100.583 280.271V280.157ZM102.218 280.351C102.218 281.405 102.461 282.252 102.947 282.891C103.439 283.529 104.096 283.849 104.916 283.849C105.742 283.849 106.398 283.526 106.885 282.882C107.371 282.231 107.614 281.323 107.614 280.157C107.614 279.114 107.365 278.271 106.867 277.626C106.375 276.976 105.719 276.65 104.898 276.65C104.096 276.65 103.448 276.97 102.956 277.608C102.464 278.247 102.218 279.161 102.218 280.351ZM118.152 276.809H114.962V285H113.336V276.809H110.207V275.49H118.152V276.809ZM125.465 285C125.371 284.812 125.295 284.479 125.236 283.998C124.48 284.783 123.578 285.176 122.529 285.176C121.592 285.176 120.821 284.912 120.218 284.385C119.62 283.852 119.321 283.178 119.321 282.363C119.321 281.373 119.696 280.605 120.446 280.061C121.202 279.51 122.263 279.234 123.628 279.234H125.21V278.487C125.21 277.919 125.04 277.468 124.7 277.134C124.36 276.794 123.859 276.624 123.197 276.624C122.617 276.624 122.131 276.771 121.738 277.063C121.346 277.356 121.149 277.711 121.149 278.127H119.515C119.515 277.652 119.682 277.195 120.016 276.756C120.355 276.311 120.812 275.959 121.387 275.701C121.967 275.443 122.603 275.314 123.294 275.314C124.39 275.314 125.248 275.59 125.869 276.141C126.49 276.686 126.812 277.438 126.836 278.399V282.776C126.836 283.649 126.947 284.344 127.17 284.859V285H125.465ZM122.767 283.761C123.276 283.761 123.76 283.629 124.217 283.365C124.674 283.102 125.005 282.759 125.21 282.337V280.386H123.936C121.943 280.386 120.947 280.969 120.947 282.135C120.947 282.645 121.117 283.043 121.457 283.33C121.797 283.617 122.233 283.761 122.767 283.761ZM133.331 285.176C132.042 285.176 130.993 284.754 130.185 283.91C129.376 283.061 128.972 281.927 128.972 280.509V280.21C128.972 279.267 129.15 278.426 129.508 277.688C129.871 276.943 130.375 276.363 131.02 275.947C131.67 275.525 132.373 275.314 133.129 275.314C134.365 275.314 135.326 275.722 136.012 276.536C136.697 277.351 137.04 278.517 137.04 280.034V280.711H130.598C130.621 281.648 130.894 282.407 131.415 282.987C131.942 283.562 132.61 283.849 133.419 283.849C133.993 283.849 134.479 283.731 134.878 283.497C135.276 283.263 135.625 282.952 135.924 282.565L136.917 283.339C136.12 284.563 134.925 285.176 133.331 285.176ZM133.129 276.65C132.473 276.65 131.922 276.891 131.477 277.371C131.031 277.846 130.756 278.514 130.65 279.375H135.414V279.252C135.367 278.426 135.145 277.787 134.746 277.336C134.348 276.879 133.809 276.65 133.129 276.65ZM144.405 282.847L147.64 275.49H149.67V285H148.044V278.083L144.968 285H143.843L140.705 277.934V285H139.079V275.49H141.188L144.405 282.847ZM164.523 285H162.897V280.939H158.529V285H156.895V275.49H158.529V279.612H162.897V275.49H164.523V285ZM173.014 285C172.92 284.812 172.844 284.479 172.785 283.998C172.029 284.783 171.127 285.176 170.078 285.176C169.141 285.176 168.37 284.912 167.767 284.385C167.169 283.852 166.87 283.178 166.87 282.363C166.87 281.373 167.245 280.605 167.995 280.061C168.751 279.51 169.812 279.234 171.177 279.234H172.759V278.487C172.759 277.919 172.589 277.468 172.249 277.134C171.909 276.794 171.408 276.624 170.746 276.624C170.166 276.624 169.68 276.771 169.287 277.063C168.895 277.356 168.698 277.711 168.698 278.127H167.063C167.063 277.652 167.23 277.195 167.564 276.756C167.904 276.311 168.361 275.959 168.936 275.701C169.516 275.443 170.151 275.314 170.843 275.314C171.938 275.314 172.797 275.59 173.418 276.141C174.039 276.686 174.361 277.438 174.385 278.399V282.776C174.385 283.649 174.496 284.344 174.719 284.859V285H173.014ZM170.315 283.761C170.825 283.761 171.309 283.629 171.766 283.365C172.223 283.102 172.554 282.759 172.759 282.337V280.386H171.484C169.492 280.386 168.496 280.969 168.496 282.135C168.496 282.645 168.666 283.043 169.006 283.33C169.346 283.617 169.782 283.761 170.315 283.761ZM176.854 283.673L177.417 282.979C178.05 282.158 178.41 280.928 178.498 279.287L178.647 275.49H184.773V283.673H185.995V287.795H184.369V285H177.733V287.795H176.107L176.116 283.673H176.854ZM178.779 283.673H183.147V276.993H180.221L180.124 279.261C180.024 281.153 179.576 282.624 178.779 283.673ZM195.602 276.65C195.021 276.65 194.518 276.835 194.09 277.204C193.668 277.573 193.457 278.01 193.457 278.514H191.91C191.91 277.969 192.083 277.447 192.429 276.949C192.774 276.451 193.234 276.056 193.809 275.763C194.383 275.464 194.98 275.314 195.602 275.314C196.838 275.314 197.837 275.763 198.599 276.659C199.366 277.55 199.75 278.716 199.75 280.157V280.43C199.75 281.32 199.574 282.135 199.223 282.873C198.877 283.605 198.388 284.174 197.755 284.578C197.128 284.977 196.41 285.176 195.602 285.176C194.547 285.176 193.668 284.848 192.965 284.191C192.262 283.535 191.91 282.718 191.91 281.739H193.457C193.457 282.337 193.665 282.841 194.081 283.251C194.497 283.655 195.004 283.857 195.602 283.857C196.299 283.857 196.873 283.588 197.324 283.049C197.775 282.51 198.036 281.769 198.106 280.825H194.538V279.489H198.089C198.007 278.634 197.746 277.948 197.307 277.433C196.867 276.911 196.299 276.65 195.602 276.65ZM208.311 276.809H205.12V285H203.494V276.809H200.365V275.49H208.311V276.809ZM216.045 275.49H217.671V285H216.045V278.065L211.659 285H210.033V275.49H211.659V282.434L216.045 275.49ZM225.757 282.847L228.991 275.49H231.021V285H229.396V278.083L226.319 285H225.194L222.057 277.934V285H220.431V275.49H222.54L225.757 282.847Z" fill="#1C1C1C"/>
<g clip-path="url(#clip0_102_4427)">
<path d="M252.6 183.822H53.8937C50.8712 183.818 47.9734 182.615 45.8361 180.476C43.6988 178.336 42.4966 175.436 42.4932 172.41V66.2462C42.4966 63.2207 43.6988 60.32 45.8361 58.1807C47.9734 56.0413 50.8712 54.8379 53.8937 54.8345H252.6C255.622 54.8379 258.52 56.0413 260.657 58.1807C262.794 60.32 263.997 63.2207 264 66.2462V172.41C263.997 175.436 262.794 178.336 260.657 180.476C258.52 182.615 255.622 183.818 252.6 183.822Z" fill="white"/>
<path d="M202.026 176.028L9.95409 125.064C7.0333 124.285 4.54029 122.379 3.022 119.763C1.50371 117.146 1.08413 114.034 1.85531 111.109L29.0312 8.48925C29.809 5.5656 31.7136 3.07014 34.3271 1.55037C36.9407 0.0305867 40.0498 -0.389403 42.9723 0.382538L235.044 51.3472C237.965 52.1258 240.458 54.0322 241.977 56.6484C243.495 59.2645 243.914 62.3767 243.143 65.3021L215.967 167.922C215.19 170.845 213.285 173.341 210.671 174.861C208.058 176.38 204.949 176.8 202.026 176.028ZM42.7953 1.05107C40.0499 0.325926 37.1292 0.720467 34.674 2.14814C32.2189 3.57581 30.4297 5.92001 29.6991 8.66647L2.52319 111.286C1.79876 114.034 2.19292 116.958 3.61919 119.415C5.04546 121.873 7.38736 123.664 10.1311 124.395L202.203 175.36C204.949 176.085 207.869 175.69 210.325 174.263C212.78 172.835 214.569 170.491 215.3 167.744L242.475 65.1248C243.2 62.3767 242.806 59.4532 241.379 56.9956C239.953 54.538 237.611 52.7471 234.867 52.0158L42.7953 1.05107Z" fill="#D0D0D0"/>
<path d="M210.106 198H11.4006C8.37799 197.997 5.4802 196.793 3.34292 194.654C1.20564 192.514 0.00341429 189.614 0 186.588V80.4244C0.00341429 77.3989 1.20564 74.4983 3.34292 72.3589C5.4802 70.2195 8.37799 69.0161 11.4006 69.0127H210.106C213.129 69.0161 216.027 70.2195 218.164 72.3589C220.301 74.4983 221.504 77.3989 221.507 80.4244V186.588C221.504 189.614 220.301 192.514 218.164 194.654C216.027 196.793 213.129 197.997 210.106 198Z" fill="white"/>
<path d="M156.12 189.009H27.8018C27.6411 189.01 27.4806 189.006 27.3223 188.997L88.011 154.784C89.1666 154.12 91.7592 153.886 93.8018 154.262C94.3618 154.348 94.9042 154.524 95.4078 154.784L136.138 177.743L138.089 178.842L156.12 189.009Z" fill="#D0D0D0"/>
<path d="M196.603 189.009H85.6182L107.125 178.842L108.673 178.11L136.698 164.86C138.535 163.992 142.955 163.938 145.115 164.696C145.26 164.748 145.395 164.803 145.519 164.86L196.603 189.009Z" fill="#D0D0D0"/>
<path d="M11.4005 69.7043C8.56116 69.7076 5.83899 70.838 3.83125 72.8478C1.8235 74.8575 0.694137 77.5823 0.690918 80.4245V186.588C0.694137 189.43 1.8235 192.155 3.83125 194.165C5.83899 196.175 8.56116 197.305 11.4005 197.308H210.106C212.946 197.305 215.668 196.175 217.676 194.165C219.683 192.155 220.813 189.43 220.816 186.588V80.4245C220.813 77.5823 219.683 74.8575 217.676 72.8478C215.668 70.838 212.946 69.7076 210.106 69.7043H11.4005Z" fill="#1C1C1C"/>
<path d="M210.107 189.701H11.4007C10.5764 189.7 9.78611 189.371 9.20322 188.788C8.62033 188.204 8.29245 187.413 8.2915 186.588V80.4244C8.29245 79.5993 8.62033 78.8082 9.20322 78.2248C9.78611 77.6413 10.5764 77.3131 11.4007 77.3121H210.107C210.931 77.3131 211.721 77.6413 212.304 78.2248C212.887 78.8082 213.215 79.5993 213.216 80.4244V186.588C213.215 187.413 212.887 188.204 212.304 188.788C211.721 189.371 210.931 189.7 210.107 189.701ZM11.4007 78.0038C10.7596 78.0045 10.1449 78.2597 9.69155 78.7135C9.23818 79.1674 8.98317 79.7826 8.98245 80.4244V186.588C8.98317 187.23 9.23818 187.845 9.69155 188.299C10.1449 188.753 10.7596 189.008 11.4007 189.009H210.107C210.748 189.008 211.362 188.753 211.816 188.299C212.269 187.845 212.524 187.23 212.525 186.588V80.4244C212.524 79.7826 212.269 79.1674 211.816 78.7135C211.362 78.2597 210.748 78.0045 210.107 78.0038H11.4007Z" fill="#F5F5F5"/>
<path d="M174.773 153.276C189.732 153.276 201.859 138.082 201.859 119.339C201.859 100.596 189.732 85.4019 174.773 85.4019C159.813 85.4019 147.687 100.596 147.687 119.339C147.687 138.082 159.813 153.276 174.773 153.276Z" fill="#F5F5F5"/>
<path d="M174.847 112.515H174.921L176.261 189.383H173.433L174.847 112.515Z" fill="#F5F5F5"/>
<path d="M179.467 163.404C179.55 163.561 179.567 163.745 179.514 163.915C179.462 164.085 179.344 164.227 179.187 164.31L175.302 166.357L174.678 165.17L178.563 163.123C178.72 163.04 178.903 163.023 179.073 163.076C179.243 163.129 179.384 163.247 179.467 163.404Z" fill="#F5F5F5"/>
<path d="M96.901 153.276C111.86 153.276 123.987 138.082 123.987 119.339C123.987 100.596 111.86 85.4019 96.901 85.4019C81.9418 85.4019 69.8149 100.596 69.8149 119.339C69.8149 138.082 81.9418 153.276 96.901 153.276Z" fill="#F5F5F5"/>
<path d="M101.596 164.675V164.675C101.513 164.518 101.371 164.4 101.201 164.347C101.032 164.294 100.848 164.311 100.691 164.394L97.979 165.823L97.0501 112.515H96.9757L95.562 189.383H98.3896L98.0052 167.325L101.315 165.58C101.472 165.498 101.59 165.356 101.643 165.186C101.695 165.016 101.678 164.832 101.596 164.675Z" fill="#F5F5F5"/>
<path d="M141.732 157.729C141.68 157.631 141.609 157.543 141.523 157.472C141.437 157.401 141.339 157.347 141.232 157.314C141.126 157.281 141.014 157.269 140.903 157.279C140.792 157.289 140.684 157.322 140.585 157.373L137.149 159.184L135.972 91.6366H135.878L134.086 189.037H137.669L137.182 161.087L141.376 158.877C141.475 158.825 141.562 158.754 141.633 158.668C141.705 158.582 141.758 158.483 141.791 158.377C141.824 158.27 141.836 158.158 141.826 158.047C141.816 157.936 141.784 157.828 141.732 157.729Z" fill="#1C1C1C"/>
<path d="M210.797 197.308H12.0915C9.06891 197.305 6.17112 196.102 4.03384 193.962C1.89656 191.823 0.694332 188.922 0.690918 185.897V79.7329C0.694332 76.7073 1.89656 73.8067 4.03384 71.6673C6.17112 69.5279 9.06891 68.3245 12.0915 68.3211H210.797C213.82 68.3245 216.718 69.5279 218.855 71.6673C220.992 73.8067 222.194 76.7073 222.198 79.7329V185.897C222.194 188.922 220.992 191.823 218.855 193.962C216.718 196.102 213.82 197.305 210.797 197.308Z" fill="white"/>
<path d="M156.811 188.317H28.4927C28.332 188.318 28.1715 188.314 28.0132 188.305L88.7019 154.093C89.8575 153.428 92.4502 153.194 94.4927 153.57C95.0528 153.656 95.5951 153.833 96.0988 154.093L136.829 177.052L138.78 178.15L156.811 188.317Z" fill="#D0D0D0"/>
<path d="M197.294 188.317H86.3091L107.816 178.15L109.364 177.418L137.389 164.168C139.226 163.3 143.646 163.246 145.806 164.005C145.951 164.056 146.086 164.111 146.21 164.168L197.294 188.317Z" fill="#D0D0D0"/>
<path d="M210.797 197.308H12.0915C9.06891 197.305 6.17112 196.102 4.03384 193.962C1.89656 191.823 0.694332 188.922 0.690918 185.897V79.7329C0.694332 76.7073 1.89656 73.8067 4.03384 71.6673C6.17112 69.5279 9.06891 68.3245 12.0915 68.3211H210.797C213.82 68.3245 216.718 69.5279 218.855 71.6673C220.992 73.8067 222.194 76.7073 222.198 79.7329V185.897C222.194 188.922 220.992 191.823 218.855 193.962C216.718 196.102 213.82 197.305 210.797 197.308ZM12.0915 69.0127C9.2521 69.0159 6.52994 70.1464 4.52219 72.1561C2.51445 74.1659 1.38508 76.8907 1.38186 79.7329V185.897C1.38508 188.739 2.51445 191.464 4.52219 193.473C6.52994 195.483 9.2521 196.614 12.0915 196.617H210.797C213.637 196.614 216.359 195.483 218.367 193.473C220.374 191.464 221.504 188.739 221.507 185.897V79.7329C221.504 76.8907 220.374 74.1659 218.367 72.1561C216.359 70.1464 213.637 69.0159 210.797 69.0127H12.0915Z" fill="#1C1C1C"/>
<path d="M210.798 189.009H12.0917C11.2673 189.008 10.477 188.68 9.89414 188.096C9.31125 187.513 8.98337 186.722 8.98242 185.897V79.7328C8.98337 78.9077 9.31125 78.1166 9.89414 77.5332C10.477 76.9497 11.2673 76.6215 12.0917 76.6205H210.798C211.622 76.6215 212.412 76.9497 212.995 77.5332C213.578 78.1166 213.906 78.9077 213.907 79.7328V185.897C213.906 186.722 213.578 187.513 212.995 188.096C212.412 188.68 211.622 189.008 210.798 189.009ZM12.0917 77.3122C11.4505 77.3129 10.8358 77.5682 10.3825 78.022C9.9291 78.4758 9.67408 79.0911 9.67337 79.7328V185.897C9.67408 186.538 9.9291 187.154 10.3825 187.608C10.8358 188.061 11.4505 188.317 12.0917 188.317H210.798C211.439 188.317 212.053 188.061 212.507 187.608C212.96 187.154 213.215 186.538 213.216 185.897V79.7328C213.215 79.0911 212.96 78.4758 212.507 78.022C212.053 77.5682 211.439 77.3129 210.798 77.3122H12.0917Z" fill="#F5F5F5"/>
<path d="M175.463 152.584C190.423 152.584 202.55 137.39 202.55 118.647C202.55 99.9044 190.423 84.7103 175.463 84.7103C160.504 84.7103 148.377 99.9044 148.377 118.647C148.377 137.39 160.504 152.584 175.463 152.584Z" fill="#F5F5F5"/>
<path d="M175.538 111.823H175.612L176.952 188.691H174.124L175.538 111.823Z" fill="#F5F5F5"/>
<path d="M180.158 162.712C180.241 162.87 180.258 163.054 180.205 163.223C180.152 163.393 180.035 163.535 179.877 163.618L175.993 165.665L175.369 164.479L179.253 162.432C179.411 162.349 179.594 162.332 179.764 162.384C179.934 162.437 180.075 162.555 180.158 162.712Z" fill="#F5F5F5"/>
<path d="M97.5919 152.584C112.551 152.584 124.678 137.39 124.678 118.647C124.678 99.9044 112.551 84.7103 97.5919 84.7103C82.6327 84.7103 70.5059 99.9044 70.5059 118.647C70.5059 137.39 82.6327 152.584 97.5919 152.584Z" fill="#F5F5F5"/>
<path d="M102.287 163.983V163.983C102.204 163.826 102.062 163.708 101.892 163.655C101.723 163.603 101.539 163.62 101.382 163.702L98.6699 165.132L97.741 111.823H97.6666L96.2529 188.692H99.0805L98.6961 166.633L102.006 164.889C102.163 164.806 102.281 164.664 102.334 164.494C102.386 164.324 102.369 164.141 102.287 163.983Z" fill="#F5F5F5"/>
<path d="M151.312 94.1112L149.683 92.4831C148.732 91.5335 147.442 91 146.098 91C144.754 91 143.464 91.5335 142.513 92.4831L110.899 124.063L79.2839 92.4831C78.3332 91.5335 77.0438 91 75.6993 91C74.3548 91 73.0654 91.5335 72.1147 92.4831L70.4848 94.1112C70.0141 94.5815 69.6406 95.1397 69.3859 95.754C69.1311 96.3684 69 97.0269 69 97.6919C69 98.3568 69.1311 99.0153 69.3859 99.6297C69.6406 100.244 70.0141 100.802 70.4848 101.272L102.1 132.852L70.4848 164.432C70.0141 164.902 69.6406 165.46 69.3859 166.075C69.1311 166.689 69 167.347 69 168.012C69 168.677 69.1311 169.336 69.3859 169.95C69.6406 170.565 70.0141 171.123 70.4848 171.593L72.1147 173.221C73.0654 174.171 74.3548 174.704 75.6993 174.704C77.0438 174.704 78.3332 174.171 79.2839 173.221L110.899 141.641L142.513 173.221C143.464 174.171 144.754 174.704 146.098 174.704C147.442 174.704 148.732 174.171 149.683 173.221L151.312 171.593C152.263 170.643 152.797 169.355 152.797 168.012C152.797 166.669 152.263 165.381 151.312 164.432L119.698 132.852L151.312 101.272C152.263 100.323 152.797 99.0349 152.797 97.6919C152.797 96.3489 152.263 95.0609 151.312 94.1112Z" fill="#FFAF37"/>
<path opacity="0.1" d="M69.3564 166.149L100.032 135.507L99.7371 135.212L70.4847 164.432C69.9947 164.921 69.6107 165.505 69.3564 166.149Z" fill="#1C1C1C"/>
<path opacity="0.1" d="M70.0475 95.1378C70.9982 94.1882 72.2877 93.6547 73.6321 93.6547C74.9766 93.6547 76.266 94.1882 77.2167 95.1378L108.831 126.718L140.446 95.1378C141.397 94.1882 142.686 93.6547 144.031 93.6547C145.375 93.6547 146.665 94.1882 147.615 95.1378L149.245 96.7659C149.945 97.4645 150.424 98.3522 150.624 99.3196C150.825 100.287 150.738 101.292 150.374 102.21L151.312 101.272C151.783 100.802 152.157 100.244 152.411 99.6297C152.666 99.0153 152.797 98.3568 152.797 97.6919C152.797 97.0269 152.666 96.3684 152.411 95.754C152.157 95.1397 151.783 94.5815 151.312 94.1112L149.682 92.4831C148.732 91.5335 147.442 91 146.098 91C144.753 91 143.464 91.5335 142.513 92.4831L110.899 124.063L79.2838 92.4831C78.3331 91.5335 77.0437 91 75.6992 91C74.3547 91 73.0653 91.5335 72.1146 92.4831L70.4847 94.1112C69.9947 94.6002 69.6107 95.1846 69.3564 95.8282L70.0475 95.1378Z" fill="#1C1C1C"/>
<path opacity="0.1" d="M119.993 133.147L117.631 135.507L149.246 167.086C149.945 167.785 150.424 168.673 150.625 169.64C150.825 170.607 150.738 171.612 150.374 172.531L151.313 171.593C151.783 171.123 152.157 170.565 152.411 169.95C152.666 169.336 152.797 168.677 152.797 168.012C152.797 167.347 152.666 166.689 152.411 166.075C152.157 165.46 151.783 164.902 151.313 164.432L119.993 133.147Z" fill="#1C1C1C"/>
</g>
<defs>
<clipPath id="clip0_102_4427">
<rect width="264" height="198" fill="white"/>
</clipPath>
</defs>
</svg>
